<?xml version="1.0" encoding="utf-8"?>
<!-- Generator: Adobe Illustrator 27.0.1, SVG Export Plug-In . SVG Version: 6.00 Build 0)  -->
<svg version="1.1" id="Camada_1" xmlns="http://www.w3.org/2000/svg" xmlns:xlink="http://www.w3.org/1999/xlink" x="0px" y="0px"
	 viewBox="0 0 698 333" style="enable-background:new 0 0 698 333;" xml:space="preserve">
<style type="text/css">
	.st0{fill:#FFFFFF;}
</style>
<g>
	<g>
		<path class="st0" d="M534,263.1c0.4-0.2,0.9-0.2,1.3,0c0.4,0.2,0.7,0.5,0.9,0.9c0.1,0.4,0.1,0.8,0,1.2
			c-5.7,12.3-11.4,22.7-17.1,31.3c-5.7,8.6-11.1,15.1-16.4,19.5c-5.3,4.4-10.1,6.6-14.6,6.6c-1.3,0-2.6-0.2-3.9-0.6
			c-4.1-1.3-7.4-4.5-9.9-9.6c-2.5-5.1-4-11.6-4.4-19.5c-0.5-7.8,0.1-16.7,1.6-26.7c1.7-10.4,4.5-21.2,8.5-32.4
			c4.7-13.1,9.8-22.9,15.3-29.5c4.5-5.3,8.3-7.2,11.5-5.7c2.2,1.1,3.7,3.7,4.5,7.8c0.8,4.1,0.9,9.3,0.4,15.5
			c-0.5,6.2-1.3,12.4-2.3,18.6c-1,6.2-2.4,13-4,20.2c-0.1,0.4-0.4,0.7-0.8,1c-0.4,0.3-0.8,0.3-1.2,0.2c-0.4-0.1-0.8-0.4-1-0.7
			c-0.3-0.4-0.3-0.8-0.2-1.2c1.7-7.7,3.1-14.7,4.1-21.1c1-6.4,1.7-11.7,2-16.1c0.3-4.3,0.4-8,0.2-11.1c-0.2-3.1-0.5-5.4-1.1-7
			c-0.5-1.6-1.2-2.6-2.1-3c-0.8-0.4-1.9-0.2-3.2,0.7c-1.3,0.9-2.8,2.2-4.3,4c-5.1,6.1-9.8,15.1-14.1,26.8c-4.3,11.7-7.3,22.9-9,33.5
			c-2.3,14.1-2.4,26.1-0.3,35.9c1,4.5,2.4,8.1,4.2,10.9c1.8,2.8,4,4.5,6.5,5.3c5.5,1.7,12-1.4,19.7-9.5c9.1-9.5,18.5-24.7,28.2-45.6
			C533.3,263.5,533.6,263.2,534,263.1z"/>
	</g>
	<g>
		<path class="st0" d="M556.2,255.8c-2.2,0.9-4.3,1.6-6.3,1.9c-2,0.3-3.7,0-5.2-0.9c-1.5-0.9-2.4-2.6-2.9-4.9
			c-0.5,0.3-1,0.8-1.7,1.3c-0.7,0.5-1.2,1-1.8,1.5c-0.5,0.4-1.1,0.9-1.8,1.4c-0.7,0.5-1.3,0.9-1.9,1.3c-0.6,0.4-1.2,0.7-1.9,1
			c-0.7,0.3-1.4,0.5-2,0.7c-0.7,0.1-1.3,0.2-2.1,0.3c-0.7,0-1.4-0.1-2.1-0.3c-1.3-0.3-2.3-1-3.1-2.1c-0.7-1-1.1-2.2-1.1-3.4
			c0-1.2,0.2-2.5,0.5-3.8c0.7-2.5,1.9-4.6,3.8-6.4c1.8-1.8,3.9-3,6.2-3.8c2.3-0.7,4.7-1,7.3-0.8c2.6,0.2,4.9,0.9,7,2.2
			c1,0.6,1.2,1.3,0.4,2.2c-0.7,0.9-1.5,1.1-2.4,0.5c-4.4-2.5-8.8-2.4-13.3,0.3c-0.9,0.6-1.8,1.2-2.5,1.9c-0.8,0.7-1.5,1.5-2.2,2.5
			c-0.7,0.9-1,1.9-1,2.8c0,0.9,0.4,1.8,1.2,2.8c0.8,0.9,1.7,1.3,2.8,1.3s2.1-0.3,3.2-1c1.1-0.7,2.1-1.4,3.1-2.2
			c1-0.8,2.1-1.7,3.3-2.7c1.2-1,2.1-1.7,2.8-2.2c0.6-0.3,1.1-0.3,1.6,0.2c0.5,0.5,0.8,1,0.8,1.6c0.1,6.4,4.2,5.6,8.6,4.1
			C557.1,251.1,558.5,254.9,556.2,255.8z"/>
		<path class="st0" d="M586.7,244.1c0.7-0.2,1.3-0.1,1.8,0.3c0.5,0.4,0.7,1,0.7,1.6c0,0.6-0.4,1.1-1,1.3c-3.3,1.2-6.5,2.7-9.6,4.4
			c-0.6,1.3-1.1,2.4-1.7,3.4c-0.1,0.1-0.1,0.2-0.2,0.3c-6.9,12.6-12.2,17.9-15.9,15.8c-1.3-0.7-2-1.8-2.2-3.2
			c-0.1-1.4,0.1-2.7,0.7-3.9c0.6-1.1,1.3-2.2,2.1-3.2c3.7-4.5,8.6-8.5,14.6-12c1.7-4.4,2.6-8.2,2.5-11.4c-0.1-4-2-4.6-5.8-1.9
			c-1.1,0.9-2.3,1.8-3.4,2.9c-1.1,1.1-2.3,2.4-3.5,4.1c-1.3,1.7-2.2,2.9-2.7,3.6c-0.5,0.7-1.5,2.2-3.1,4.6c-1.5,2.3-2.3,3.6-2.4,3.7
			c-0.5,0.7-1.2,0.9-2.1,0.5c-0.9-0.3-1.2-0.9-1.1-1.7c3.6-24.8,11.6-46.3,24-64.6c0.3-0.6,0.8-0.8,1.5-0.7c0.7,0.1,1.1,0.4,1.4,0.9
			c0.3,0.5,0.2,1.1-0.1,1.8c-10.7,15.8-18,34.1-21.9,54.7c8-12,14.1-17.3,18.5-15.8c5.2,1.6,6.1,7.3,2.7,17
			C582.7,245.6,584.8,244.7,586.7,244.1z M563.9,266.9c3-2.2,6.1-6.1,9.1-11.7c-1.3,0.9-2.5,1.8-3.5,2.8c-1.3,1.1-3.1,3.3-5.4,6.5
			c-1.8,2.5-2.1,3.5-0.9,2.9C563.3,267.4,563.6,267.2,563.9,266.9z"/>
		<path class="st0" d="M624.1,245.3c0.3-0.3,0.7-0.4,1.1-0.4c0.4,0,0.7,0.1,1,0.3c0.3,0.2,0.5,0.5,0.6,0.8c0.1,0.3,0.2,0.6,0.1,1
			c-0.1,0.3-0.3,0.7-0.6,0.9c-4.1,3.3-8.8,4.8-13.9,4.6c-5.1-0.2-9.6-2-13.5-5.5c-2.1,2.5-3.8,5.4-5.2,8.9c-1.4,3.4-2.5,7-3.2,10.7
			c-0.1,0.7-0.5,1.1-1,1.4c-0.6,0.2-1.1,0.2-1.6-0.2c-0.5-0.3-0.8-0.9-0.8-1.6c0.2-7.8,1.8-16.8,4.6-26.9c0.2-0.7,0.6-1.1,1.2-1.1
			c0.6-0.1,1.2,0.2,1.6,0.6c0.5,0.5,0.6,1,0.4,1.7c-1,3.5-1.8,6.9-2.5,10.2c1.6-2.9,3.4-5.4,5.3-7.4c0.3-0.3,0.8-0.5,1.2-0.4
			c0.5,0.1,0.9,0.3,1.2,0.6c3.2,3.4,7,5.3,11.6,5.7C616.4,249.6,620.5,248.3,624.1,245.3z"/>
		<path class="st0" d="M666.1,245c0.5-0.5,1-0.6,1.6-0.4c0.6,0.3,1,0.7,1.1,1.3c0.1,0.6-0.1,1.2-0.5,1.8c-1.1,1.1-2.5,2.3-4.2,3.7
			c-1.7,1.3-3.6,2.8-5.9,4.3c-2.2,1.5-4.4,2.7-6.6,3.7c-2.2,0.9-4.3,1.6-6.3,1.9s-3.7,0-5.2-0.9c-1.5-0.9-2.4-2.6-2.9-4.9
			c-0.5,0.3-1,0.8-1.7,1.3c-0.7,0.5-1.2,1-1.8,1.5c-0.5,0.4-1.1,0.9-1.8,1.4c-0.7,0.5-1.3,0.9-1.9,1.3c-0.6,0.4-1.2,0.7-1.9,1
			c-0.7,0.3-1.4,0.5-2,0.7c-0.7,0.1-1.3,0.2-2.1,0.3c-0.7,0-1.4-0.1-2.1-0.3c-1.3-0.3-2.3-1-3.1-2.1c-0.7-1-1.1-2.2-1.1-3.4
			c0-1.2,0.2-2.5,0.5-3.8c0.7-2.5,1.9-4.6,3.8-6.4c1.8-1.8,3.9-3,6.2-3.8c2.3-0.7,4.7-1,7.3-0.8c2.6,0.2,4.9,0.9,7,2.2
			c1,0.6,1.2,1.3,0.4,2.2c-0.7,0.9-1.5,1.1-2.4,0.5c-4.4-2.5-8.8-2.4-13.3,0.3c-0.9,0.6-1.8,1.2-2.5,1.9c-0.8,0.7-1.5,1.5-2.2,2.5
			c-0.7,0.9-1,1.9-1,2.8c0,0.9,0.4,1.8,1.2,2.8c0.8,0.9,1.7,1.3,2.8,1.3s2.1-0.3,3.2-1c1.1-0.7,2.1-1.4,3.1-2.2
			c1-0.8,2.1-1.7,3.3-2.7c1.2-1,2.1-1.7,2.8-2.2c0.6-0.3,1.1-0.3,1.6,0.2c0.5,0.5,0.8,1,0.8,1.6c0.1,6.4,4.4,7.1,13,2.1
			c4.6-2.7,8.7-5.8,12.4-9.2C665.9,245.2,666,245.1,666.1,245z"/>
		<path class="st0" d="M682.2,212.5c1.2,1.8,0.6,6-1.8,12.6c-2.4,6.6-6.2,14.2-11.6,22.7c-0.1,0.1-0.1,0.1-0.2,0.2
			c-3.6,14.5-7.1,29.5-10.4,45.2c-3.3,15.7-5.4,26.9-6.3,33.5c0.1,0,0.1,0,0.2,0c0.5,0.2,0.8,0.5,1,0.9c0.2,0.4,0.2,0.8,0,1.3
			c-0.3,1-0.6,1.7-0.8,2.2c-0.2,0.5-0.5,1-0.9,1.4c-0.4,0.5-0.8,0.7-1.3,0.7c-0.2,0-0.4,0-0.6-0.1c-0.8-0.3-1.2-1.1-1.3-2.4
			c-0.1-1.3,0.3-4.5,1.2-9.5c1-6.2,2.6-14.3,4.6-24.3c4.8-22.7,9.5-43,14.2-60.8c0.4-1.5,0.8-3.1,1.3-4.7c0.5-1.6,1.1-3.7,2-6.2
			c0.9-2.5,1.7-4.6,2.5-6.5c0.8-1.9,1.8-3.5,2.8-5c1-1.5,2-2.3,2.9-2.4C680.8,211.3,681.6,211.6,682.2,212.5z M671.7,236.4
			c4.6-8.7,7.2-15.5,7.7-20.4C676.9,219.8,674.3,226.6,671.7,236.4z"/>
	</g>
</g>
<path class="st0" d="M611.1,134.1c0-10,23.9-22.9,33.6-29.1c15.6-10,26.7-16.2,37.7-26.9c12.2-11.4,15.9-29.2,15.9-29.2h-91.1
	l-16.7,21.4v0h76.8c4.6,0,7.4,1.9,7.4,4.6c0,10-24.4,22.7-34.5,29.2c-15.4,10-26.7,16.2-37.9,27.3c-11,11.4-11.7,28.5-11.7,28.5
	h91.1l16.7-21.4h-80C613.6,138.6,611.1,136.6,611.1,134.1z"/>
<path class="st0" d="M177.9,73.2c10,0,22.9,23.9,29.1,33.6c10,15.6,16.2,26.7,26.9,37.7c11.4,12.2,29.2,15.9,29.2,15.9V69.2
	l-21.4-16.7h0v76.8c0,4.6-1.9,7.4-4.6,7.4c-10,0-22.7-24.4-29.2-34.5c-10-15.4-16.2-26.7-27.3-37.9c-11.4-11-28.5-11.7-28.5-11.7
	v91.1l21.4,16.7v-80C173.5,75.7,175.4,73.2,177.9,73.2z"/>
<g>
	<path class="st0" d="M421,92.5c-3.2-11.4-10.3-21.3-21.4-28.4c-11-7.1-25.9-11.4-44.5-11.6H310v91.1l21.4,16.7h23.8
		c17.7-0.2,31.9-4,42.8-10.4c12-7.1,19.7-17.4,23.1-29.3c1.3-4.5,1.9-9.2,1.9-14.1C422.9,101.7,422.2,96.9,421,92.5z M354.7,158.1
		h-23.5V57.7h23.9c24.5,0.8,42.1,21.1,42.1,48.8c0,12.1-1.9,21.8-5.4,29.4c-0.9,2-1.9,3.8-3,5.5
		C381.3,152.9,369.1,157.8,354.7,158.1z"/>
</g>
<path class="st0" d="M509.9,0.4h24.9c0,0-15.2,34.5-65.6,38.6C488.2,33.7,506,13.6,509.9,0.4z"/>
<path class="st0" d="M123.8,160.3L74,53.3H50.1l-49.8,107h3.3L51.6,56.8l27,58.1H42.9l11.2,4c20.2,7.1,36.6,22.1,45.7,41.5l0,0
	H123.8z"/>
<path class="st0" d="M563.8,160.3l-49.8-107h-23.9l-49.8,107h3.3l48.1-103.5l27,58.1h-35.7l11.2,4c20.2,7.1,36.6,22.1,45.7,41.5l0,0
	H563.8z"/>
</svg>
