<svg width="70" height="70" viewBox="0 0 70 70" fill="none" xmlns="http://www.w3.org/2000/svg">
<path d="M0 37.3325V70H32.6675V46.6667H28.0026L16.3359 50.1675V55.0379L28.0026 51.5371V65.3308H4.66495V41.9974H32.6632V37.3325H0ZM41.9974 41.9974H65.3308V53.4587L41.9974 60.4604V42.0017V41.9974ZM37.3325 37.3325V70H41.9974V65.3351L69.9957 56.9338V37.3325H37.3282H37.3325ZM22.1949 0L16.3359 19.5372L10.4726 0H0V32.6675H4.66495V4.66495H6.99743L13.9991 27.9983H18.6641L25.6658 4.66495H27.9983V32.6632H32.6632V0H22.1906H22.1949ZM42.0017 16.5371L65.3351 9.53534V27.994H42.0017V16.5328V16.5371ZM65.3308 0V4.66495L37.3325 13.0662V32.6675H70V0H65.3351H65.3308Z" fill="white"/>
</svg>
