<svg width="270" height="55" viewBox="0 0 270 55" fill="none" xmlns="http://www.w3.org/2000/svg">
<path d="M34.7709 0.00485523L52.9567 54.3834H45.4066L28.9806 4.01527H23.9761L17.4529 24.0188C17.318 24.4655 16.9708 25.8152 19.0102 26.4901C19.9021 26.7863 21.3003 27.063 23.5759 27.1261C30.128 27.3058 32.5145 30.9618 32.5917 34.7391C32.6351 36.9094 31.6757 38.9778 29.9593 40.4246C28.2718 41.8423 26.1216 42.5318 23.4506 42.5318C22.5008 42.5318 17.4385 42.5075 16.2525 42.5318C14.6566 42.5658 13.4754 42.7308 12.7233 43.027C11.5228 43.498 10.6694 44.7555 9.57984 48.1833L7.55973 54.3834H0L1.7694 49.0912C1.7694 49.0912 2.88793 45.8382 3.03739 45.4303C3.50987 44.1194 3.9004 43.1338 4.13182 42.7017C7.20296 36.8997 9.64251 35.8995 16.2476 35.7393C17.1203 35.7199 21.9753 35.749 22.4767 35.7393C25.0271 35.7005 25.7407 35.6082 25.9239 34.9673C26.0396 34.5692 25.7359 34.1954 24.8102 34.1274C23.8074 34.0546 22.1151 34.006 20.1528 33.7098C15.2303 32.9767 13.7406 31.5784 12.7763 30.6996C10.5248 28.6458 10.0137 26.6115 10.3416 24.0382C10.3898 23.6692 11.0696 21.2805 11.0696 21.2805L11.8121 19.0616L18.1858 0.00485523H34.7709ZM92.5103 51.5965H91.1507L76.4169 0.00485523H60.7478V54.3834H67.5506V2.79175H70.1348L84.6854 54.3834H98.9707L113.521 2.79175H116.105V54.3834H122.908V0.00485523H107.239L92.5103 51.5965ZM269.995 54.3834H262.445L258.284 41.619L255.435 32.8747C250.961 33.9477 249.182 37.6329 246.892 43.1484C244.698 48.426 241.487 55 233.701 55C228.373 55 225.63 52.5967 224.261 50.5769C220.384 44.8574 223.176 35.8316 224.073 33.3166C224.145 33.1175 235.229 0 235.229 0H251.814L270 54.3785L269.995 54.3834ZM253.294 26.325L246.019 4.01527H241.015L230.577 36.0355C230.577 36.0355 230.451 36.4142 230.316 36.8366C230.152 37.3415 229.8 38.6039 229.733 38.9195C227.959 47.1637 231.256 48.2075 233.701 48.2075C236.651 48.2075 238.339 45.9207 240.595 40.5023C242.76 35.2926 245.614 28.4468 253.299 26.3299L253.294 26.325ZM132.985 6.80217H144.633V47.5861H132.985V54.3834H163.031V47.5861H151.383V6.80217H163.031V0.00485523H132.985V6.80217ZM205.733 27.1941H213.606V54.3834H206.856V29.981H179.857V54.3834H173.107V0.00485523H194.759C209.985 0.00485523 214.801 7.56444 214.801 14.8036C214.801 19.1393 212.82 24.0479 205.733 27.1941ZM207.155 14.8036C207.155 11.3952 205.511 8.4578 200.612 7.34596C198.583 6.88471 195.782 6.80217 192.281 6.80217H179.857V23.1837H192.281C195.786 23.1837 197.864 23.0963 199.894 22.6108C205.419 21.2902 207.155 18.3188 207.155 14.8036Z" fill="white"/>
</svg>
