<svg width="40" height="40" viewBox="0 0 40 40" fill="none" xmlns="http://www.w3.org/2000/svg">
<path d="M0 21.3328V40H18.6672V26.6667H16.0015L9.3348 28.6672V31.4502L16.0015 29.4497V37.3319H2.66569V23.9985H18.6647V21.3328H0ZM23.9985 23.9985H37.3319V30.5478L23.9985 34.5488V24.001V23.9985ZM21.3328 21.3328V40H23.9985V37.3343L39.9976 32.5336V21.3328H21.3304H21.3328ZM12.6828 0L9.3348 11.1641L5.98435 0H0V18.6672H2.66569V2.66569H3.99853L7.99951 15.999H10.6652L14.6662 2.66569H15.999V18.6647H18.6647V0H12.6804H12.6828ZM24.001 9.44974L37.3343 5.44877V15.9966H24.001V9.4473V9.44974ZM37.3319 0V2.66569L21.3328 7.46637V18.6672H40V0H37.3343H37.3319Z" fill="#2B2B2B"/>
</svg>
