<svg width="300" height="300" viewBox="0 0 300 300" fill="none" xmlns="http://www.w3.org/2000/svg">
<path d="M0 159.996V300H140.004V200H120.011L70.011 215.004V235.877L120.011 220.873V279.989H19.9927V179.989H139.985V159.996H0ZM179.989 179.989H279.989V229.109L179.989 259.116V180.007V179.989ZM159.996 159.996V300H179.989V280.007L299.982 244.002V159.996H159.978H159.996ZM95.1211 0L70.011 83.7307L44.8826 0H0V140.004H19.9927V19.9927H29.989L59.9963 119.993H79.989L109.996 19.9927H119.993V139.985H139.985V0H95.1027H95.1211ZM180.007 70.8731L280.007 40.8657V119.974H180.007V70.8547V70.8731ZM279.989 0V19.9927L159.996 55.9978V140.004H300V0H280.007H279.989Z" fill="white"/>
</svg>
