<svg width="17" height="16" viewBox="0 0 17 16" fill="none" xmlns="http://www.w3.org/2000/svg">
<path d="M8.46191 0.00012207C4.04325 0.00012207 0.461914 3.59464 0.461914 8.02956C0.461914 11.7954 3.04591 14.9536 6.52858 15.8235V10.4839H4.87791V8.02956H6.52858V6.97235C6.52858 4.23967 7.76058 2.97369 10.4352 2.97369C10.9419 2.97369 11.8166 3.07272 12.1739 3.17443V5.39858C11.9846 5.37985 11.6566 5.36914 11.2486 5.36914C10.6752 5.36914 10.2539 5.4655 9.96325 5.67961C9.58992 5.95797 9.42991 6.43438 9.42991 7.16238V8.02956H12.0432L11.5952 10.4839H9.42991V16.0001C13.3899 15.521 16.4619 12.1353 16.4619 8.02956C16.4619 3.59464 12.8806 0.00012207 8.46191 0.00012207Z" fill="#2B2B2B"/>
</svg>
