<svg width="197" height="67" viewBox="0 0 197 67" fill="none" xmlns="http://www.w3.org/2000/svg">
<rect x="0.52002" y="0.0388794" width="196" height="66" fill="white"/>
<path d="M19.4923 32.5839C19.566 32.6579 19.625 32.7614 19.684 32.8501C21.5561 35.7777 23.4283 38.7053 25.2857 41.6477C25.3889 41.8104 25.492 41.9583 25.6099 42.1209L25.6395 42.1505H25.6837C25.6837 42.1505 25.7574 42.1061 25.8016 42.0913H25.8459V32.4656H27.6442V45.8618C27.3494 45.8618 27.0694 45.8618 26.7893 45.8618C26.5535 45.8618 26.3176 45.8617 26.0818 45.8322C26.0228 45.8322 25.9491 45.773 25.8754 45.6991C25.8017 45.6252 25.7279 45.5217 25.6837 45.4477C23.8558 42.5793 22.028 39.7108 20.2001 36.8423C20.0526 36.6205 19.9052 36.3839 19.6251 36.1917L19.5366 36.1326V45.8322H17.7235V32.4361C18.0183 32.4361 18.3131 32.4361 18.5931 32.4361C18.8437 32.4361 19.0943 32.4361 19.3302 32.4656C19.3892 32.4656 19.4629 32.5248 19.5218 32.5987M25.669 32.1995H25.6099V41.4999C25.4478 41.3668 25.3594 41.2485 25.2709 41.1007C23.6641 38.5723 21.9984 36.0586 20.4505 33.4859C20.1999 33.0719 19.9494 32.7318 19.6399 32.4804C19.3303 32.2439 18.9765 32.096 18.5343 32.096C18.3721 32.096 18.1951 32.1108 18.0182 32.1551C17.974 32.1551 17.9298 32.1551 17.8856 32.1551C17.7677 32.1551 17.6202 32.1256 17.4876 32.1256H17.4287V32.1847V46.1722H19.7577V36.7831C19.9199 36.9162 20.0231 37.0641 20.1115 37.212C21.8952 40.0213 23.6789 42.8306 25.4773 45.6399C25.5363 45.7286 25.61 45.8469 25.6985 45.9357C25.7869 46.0244 25.8753 46.0983 25.9932 46.1131C26.2733 46.1427 26.5387 46.1426 26.8188 46.1426C27.1579 46.1426 27.4968 46.1426 27.8359 46.1426H27.8949V32.1995H25.6542" fill="#010202"/>
<path d="M110.858 26.1372H112.45V25.6198C112.185 25.5902 111.934 25.5754 111.669 25.5458V19.6462C111.949 19.6167 112.215 19.5723 112.495 19.5427V19.0104H110.873V26.1372H110.858Z" fill="#010202"/>
<path d="M178.55 19.0104V19.5575C178.845 19.5871 179.081 19.6166 179.346 19.6314V25.5458C179.066 25.5754 178.815 25.5902 178.55 25.6198C178.565 25.8268 178.579 25.9746 178.594 26.1964H180.186V19.0104H178.565H178.55Z" fill="#010202"/>
<path d="M72.3833 43.3778C72.7665 43.0229 72.9287 42.6089 72.9287 42.1654C72.9287 41.9436 72.8845 41.707 72.8256 41.4704C72.7076 41.0712 72.5012 40.7902 72.2211 40.5832C71.941 40.3762 71.6021 40.2431 71.2188 40.184C70.4375 40.0509 69.6414 39.977 68.8601 39.8291C67.8577 39.6517 67.0617 39.1934 66.5163 38.5576C65.9709 37.9218 65.6761 37.0938 65.6761 36.1475C65.6761 35.8665 65.7055 35.5708 65.7645 35.2603C65.9414 34.314 66.5017 33.619 67.165 32.9832C67.1798 32.9832 67.1944 32.9832 67.2239 32.9832C67.2533 32.9832 67.2829 32.9833 67.3271 32.9685C68.2853 32.4805 69.1993 32.2587 70.1132 32.2587C71.5137 32.2587 72.8699 32.7615 74.1966 33.5599C74.1966 33.5599 74.1964 33.5599 74.2259 33.5895C74.2259 33.6042 74.2407 33.6338 74.2554 33.6486C73.9458 34.1218 73.6216 34.5949 73.3415 35.0237C72.5897 34.7428 71.9116 34.4471 71.2041 34.24C70.8061 34.1218 70.3932 34.0626 69.9804 34.0626C69.5087 34.0626 69.0371 34.1513 68.5801 34.3879C68.2263 34.5654 67.9609 34.8167 67.784 35.1124C67.6071 35.4081 67.5335 35.763 67.5335 36.1622C67.5335 36.5614 67.6367 36.8867 67.8283 37.1529C68.0199 37.419 68.2853 37.6261 68.6244 37.7739C68.9339 37.9218 69.2729 38.0253 69.6119 38.0696C70.8502 38.247 72.1033 38.3506 73.2236 38.9568C73.2678 39.0159 73.2973 39.0899 73.371 39.149C74.3439 39.9474 74.7713 40.9381 74.7713 42.0618C74.7713 42.3723 74.7419 42.7124 74.6682 43.0525C74.5208 43.8066 74.1817 44.398 73.71 44.8416C73.2383 45.2852 72.6192 45.5957 71.8969 45.7583C71.2188 45.921 70.5407 45.9949 69.8921 45.9949C68.1674 45.9949 66.5753 45.433 65.0865 44.2797C65.1602 44.1171 65.2191 43.984 65.2781 43.8509C65.5877 43.5108 65.8825 43.1856 66.1773 42.8603C67.0028 43.3482 67.6367 43.6735 68.2116 43.8805C68.8012 44.0875 69.332 44.1762 69.9511 44.1762C69.9953 44.1762 70.0543 44.1762 70.0985 44.1762C70.5112 44.1762 70.9239 44.1467 71.3072 44.0432C71.7052 43.9396 72.0737 43.7474 72.398 43.4221L72.4275 43.3926L72.3833 43.3778ZM74.1228 39.5482C73.9017 39.2525 73.6069 39.0159 73.2384 38.8533C72.8993 38.528 72.516 38.3505 72.1033 38.247C71.6758 38.1287 71.2483 38.0844 70.8208 37.9957C70.0985 37.8626 69.3318 37.8035 68.6832 37.5225C68.0493 37.2564 67.7399 36.6945 67.7399 36.1031C67.7399 35.6152 67.961 35.1124 68.4327 34.7871C68.7276 34.5801 69.1255 34.4323 69.5088 34.3879C69.7004 34.3583 69.9069 34.3436 70.0985 34.3436C71.0567 34.3436 71.9411 34.6541 72.8108 35.1124C72.973 35.2011 73.1498 35.2899 73.3562 35.3934L73.4005 35.4229L73.43 35.3786C73.8428 34.7723 74.2259 34.1809 74.6092 33.6043L74.6387 33.5599L74.5944 33.5303C73.4741 32.5988 71.6168 32.0074 70.0395 32.0074C69.7741 32.0074 69.5088 32.0222 69.2729 32.0665C68.8896 32.1257 68.5063 32.17 68.1378 32.2883C67.784 32.4066 67.4451 32.584 67.1503 32.865C67.0028 32.9537 66.8111 33.0276 66.6637 33.1755C65.8234 33.9887 65.455 34.9646 65.455 36.0144C65.455 36.3545 65.4991 36.7093 65.5581 37.0642C65.7202 37.9218 66.1626 38.6315 66.7965 39.149C67.4304 39.6665 68.2705 40.0066 69.2581 40.1396C69.9805 40.2284 70.6881 40.3023 71.3957 40.4649C71.8085 40.5684 72.1328 40.7755 72.3539 41.0416C72.575 41.3077 72.6929 41.6478 72.6929 42.0175C72.6929 42.3132 72.6192 42.6237 72.4423 42.9342C72.3833 43.0525 72.3539 43.1708 72.3097 43.2891C72.3097 43.2891 72.2506 43.2891 72.2064 43.2891C72.1621 43.2891 72.118 43.2891 72.0885 43.3187C71.4841 43.7474 70.8208 43.8657 70.1132 43.8657C69.9511 43.8657 69.7888 43.8657 69.6267 43.8509C68.3589 43.7622 67.2534 43.2743 66.1773 42.4758L66.133 42.4462L66.1035 42.4906C65.7792 42.9194 65.4698 43.3186 65.1602 43.7179C65.0128 43.8509 64.8653 43.984 64.6737 44.1319L64.6294 44.1762L64.6737 44.2206C65.5876 45.0486 66.5753 45.5809 67.6809 45.8914C68.1526 46.0245 68.6243 46.1132 69.0813 46.2167H70.9387C71.2482 46.1428 71.5578 46.054 71.8674 45.9801C73.7984 45.4922 74.9925 43.9397 74.9925 42.1505C74.9925 41.6035 74.8746 41.0268 74.6387 40.4649C74.4913 40.1249 74.3291 39.7848 74.0933 39.5038" fill="#010202"/>
<path d="M122.901 34.4026C122.901 34.4026 122.871 34.5652 122.871 34.6687V34.7279C122.886 35.2306 122.901 35.7333 122.901 36.236C122.901 36.7387 122.901 37.2267 122.871 37.7146C122.871 37.7294 122.871 37.759 122.871 37.7738C122.871 37.8773 122.871 37.966 122.901 38.0399C122.945 38.1434 123.004 38.2173 123.107 38.2617C123.196 38.306 123.314 38.306 123.461 38.306H123.491C124.169 38.306 124.847 38.306 125.525 38.306C126.35 38.306 127.161 38.306 127.987 38.306H128.561V39.8586H122.945V39.903C122.916 40.0804 122.871 40.2135 122.871 40.3613C122.871 40.5092 122.871 40.6718 122.871 40.8197C122.871 41.2928 122.871 41.7512 122.871 42.2096C122.871 42.6679 122.871 43.1558 122.871 43.6142V43.6438C122.871 43.7325 122.871 43.8064 122.901 43.8803C122.93 43.9838 122.989 44.0578 123.078 44.1022C123.166 44.1465 123.269 44.1613 123.417 44.1613H123.432C124.287 44.1613 125.156 44.1613 126.011 44.1613C126.969 44.1613 127.942 44.1613 128.901 44.1613H129.534V45.8321H121.147V32.4656H129.549V34.1068C129.372 34.1068 129.195 34.1364 129.018 34.1364C128.031 34.1364 127.043 34.1364 126.056 34.1364C125.201 34.1364 124.346 34.1364 123.491 34.1364H123.461C123.269 34.1364 123.122 34.166 123.019 34.2547C122.96 34.2991 122.93 34.3582 122.901 34.4321M123.181 43.9247V40.1395H128.783V38.0399H123.181V34.4173H129.77V32.1994H120.881V46.113H129.785V43.9099H123.196L123.181 43.9247Z" fill="#010202"/>
<path d="M109.148 39.9177H103.531V45.8469H101.748V32.4656H103.487V38.2469H109.177V32.4508H110.961V45.8321H109.192V39.903H109.133L109.148 39.9177ZM109 32.1994H108.941V38.0103H103.738V32.1994H101.512V46.113H103.767V40.1986H108.956V46.113H111.212V32.1994H108.986H109Z" fill="#010202"/>
<path d="M53.7504 33.9886V45.8617H51.9225V34.033H48.2079V32.4508H57.4211V33.9886H53.7504ZM57.4947 32.1995C57.3915 32.1551 57.2736 32.1404 57.1114 32.1404H57.0967C55.6078 32.1404 54.1191 32.1404 52.6303 32.1404C51.5247 32.1404 50.4043 32.1404 49.2987 32.1404C49.0187 32.1404 48.7532 32.1404 48.4732 32.1404C48.311 32.1404 48.1489 32.1551 47.972 32.1699H47.9277V34.2695H51.672V46.0687H53.9568V34.2399H57.7011V34.1808C57.7011 33.8555 57.7011 33.5598 57.7011 33.2937C57.7011 33.1162 57.7011 32.9388 57.7159 32.7613C57.7159 32.717 57.7159 32.6726 57.7159 32.6431C57.7159 32.5544 57.7159 32.4656 57.6864 32.4065C57.6569 32.303 57.5832 32.2291 57.48 32.1847" fill="#010202"/>
<path d="M160.241 23.3871C160.212 23.7715 159.917 23.9933 159.533 23.9933C159.121 23.9933 158.841 23.7568 158.811 23.3427C158.782 22.914 158.811 22.4851 158.811 22.1303C159.106 22.0859 159.342 22.0416 159.696 21.9824C159.445 21.7163 159.327 21.598 159.194 21.4649C159.755 21.2579 160.153 21.4058 160.226 21.9233C160.3 22.3965 160.285 22.8992 160.226 23.3723M159.077 20.8144C158.914 20.8735 158.752 20.9474 158.605 21.0213C158.443 20.9178 158.31 20.8291 158.163 20.7256C158.059 20.8439 157.956 20.9326 157.868 21.0361C157.927 21.0509 157.971 21.0657 158.03 21.0953C158.089 21.391 158.163 21.6867 158.177 21.9824C158.207 22.4704 158.148 22.9583 158.207 23.4463C158.281 24.156 158.841 24.5995 159.548 24.5848C160.256 24.5848 160.786 24.082 160.831 23.3871C160.86 22.914 160.86 22.4408 160.831 21.9824C160.772 21.0953 159.917 20.563 159.077 20.8439" fill="#010202"/>
<path d="M167.007 24.0228C166.668 24.0228 166.374 24.082 166.108 24.0081C165.902 23.9341 165.578 23.668 165.592 23.5349C165.622 23.3131 165.858 23.0322 166.064 22.9582C166.329 22.8547 166.654 22.9287 166.993 22.9287V24.0228H167.007ZM167.022 22.3077C166.477 22.5442 166.226 22.3077 166.064 21.8641C165.976 21.6275 165.828 21.4205 165.74 21.1839C165.592 20.7699 165.312 20.7108 164.899 20.8587C165.165 21.3762 165.415 21.8789 165.681 22.4112C165.533 22.5295 165.356 22.6034 165.327 22.7217C165.209 23.0765 165.003 23.4906 165.091 23.8158C165.18 24.1116 165.563 24.4516 165.872 24.5108C166.418 24.6291 167.007 24.5403 167.568 24.5403V20.7847C167.376 20.7995 167.229 20.8143 167.007 20.8291V22.3077H167.022Z" fill="#010202"/>
<path d="M122.68 22.0414C122.709 21.5979 122.989 21.3465 123.417 21.3465C123.83 21.3465 124.08 21.6126 124.125 22.0266C124.154 22.2337 124.154 22.4555 124.183 22.7068C124.154 22.9138 124.213 23.2243 124.095 23.4165C123.948 23.6531 123.667 23.9193 123.417 23.9784C123.048 24.0523 122.754 23.7862 122.709 23.4018C122.665 22.9582 122.665 22.4998 122.695 22.0563M123.476 24.5846C124.183 24.5551 124.685 24.0671 124.744 23.3574C124.758 23.1356 124.744 22.9286 124.744 22.7068C124.744 22.4703 124.758 22.2337 124.744 21.9971C124.685 21.2874 124.169 20.7847 123.461 20.7699C122.724 20.7551 122.164 21.2134 122.09 21.9527C122.046 22.4407 122.046 22.9286 122.09 23.4165C122.164 24.1558 122.724 24.6142 123.461 24.5846" fill="#010202"/>
<path d="M134.901 20.7847C134.459 20.7847 134.607 21.0509 134.621 21.3466H136.346V22.4407C136.007 22.4407 135.697 22.4407 135.402 22.4407C135.019 22.4407 134.862 22.6182 134.931 22.973H136.346V24.0228H134.606V24.5255H136.936V20.7847H134.886" fill="#010202"/>
<path d="M117.109 21.3614C117.478 21.3466 117.861 21.5092 118.303 21.6127C118.377 21.524 118.465 21.3909 118.568 21.243C118.023 20.7847 117.433 20.6812 116.799 20.7699C116.18 20.8586 115.841 21.2579 115.841 21.8345C115.841 22.4112 116.18 22.7956 116.785 22.9139C117.02 22.9582 117.271 22.9582 117.463 23.0617C117.61 23.1357 117.787 23.3427 117.772 23.4905C117.772 23.6384 117.595 23.8897 117.463 23.9193C117.197 23.9784 116.873 23.9785 116.637 23.8602C116.254 23.6975 116.107 23.8306 115.989 24.1855C116.107 24.2594 116.225 24.3481 116.357 24.3925C116.932 24.6143 117.522 24.703 118.052 24.2742C118.421 23.9785 118.465 23.5497 118.347 23.1356C118.156 22.4998 117.61 22.4111 117.05 22.352C116.726 22.3224 116.372 22.1894 116.46 21.8197C116.519 21.6127 116.873 21.3613 117.109 21.3466" fill="#010202"/>
<path d="M172.992 23.5644C172.992 23.5644 172.903 23.5644 172.874 23.5644C172.726 23.1209 172.579 22.6625 172.417 22.1746H173.449C173.287 22.6625 173.139 23.1209 172.992 23.5644ZM173.788 21.1691C173.729 21.6127 173.419 21.6423 173.08 21.6127C172.682 21.5683 172.181 21.8049 172.063 21.1396C171.989 20.7404 171.739 20.696 171.355 20.8586C171.783 22.0267 172.181 23.1652 172.608 24.2889C172.653 24.3924 172.8 24.5107 172.903 24.5255C173.007 24.5255 173.198 24.4368 173.228 24.3481C173.67 23.18 174.083 22.0119 174.525 20.829C174.112 20.696 173.862 20.7551 173.803 21.1691" fill="#010202"/>
<path d="M153.047 20.7553C152.295 20.7553 151.765 21.2432 151.735 21.9825C151.706 22.7809 151.735 23.5794 151.735 24.363C151.735 24.4074 151.779 24.4665 151.809 24.5405C151.956 24.5405 152.104 24.5257 152.31 24.5109V23.3428C152.31 22.9436 152.31 22.5444 152.31 22.1451C152.325 21.6276 152.605 21.3319 153.047 21.3171C153.519 21.3171 153.799 21.6128 153.814 22.1747C153.814 22.8992 153.814 23.6237 153.814 24.3482C153.814 24.3926 153.843 24.4517 153.873 24.5257C154.005 24.5257 154.153 24.5257 154.389 24.5553C154.389 23.6533 154.418 22.7957 154.389 21.9529C154.359 21.2136 153.814 20.7405 153.062 20.7553" fill="#010202"/>
<path d="M39.4959 45.8469H37.7563V32.4508H39.4959V45.8469ZM37.5647 32.1994H37.5059V46.113H39.7318V32.1994H37.5647Z" fill="#010202"/>
<path d="M129.859 23.8306V20.7847C129.638 20.7847 129.491 20.7995 129.284 20.8143V24.0081H128.312V24.5255H130.876C130.935 23.6384 130.139 24.2594 129.845 23.8158" fill="#010202"/>
<path d="M142.257 23.9786C142.257 23.047 142.242 22.1451 142.257 21.2431C142.257 20.8144 142.125 20.6813 141.638 20.8587V23.9934C140.96 24.0426 140.66 24.2201 140.739 24.5256H143.201C143.25 24.2299 142.93 24.0476 142.242 23.9786" fill="#010202"/>
<path d="M147.269 20.7109C147.269 20.7109 147.181 20.8144 147.122 20.8587V24.5552C147.313 24.5552 147.461 24.5404 147.667 24.5256C147.667 23.3575 147.667 22.219 147.652 21.0805C147.652 20.9622 147.402 20.8292 147.269 20.7109Z" fill="#010202"/>
<path d="M92.653 42.0618C92.5498 42.0618 92.4466 42.0618 92.3434 42.047C92.1813 42.0175 92.0192 42.0027 91.8718 42.0027C91.5033 42.0027 91.1789 42.0914 90.8988 42.2688C90.6188 42.461 90.4123 42.742 90.2501 43.156H90.2354C90.2354 43.156 90.147 43.2299 90.1028 43.2595C89.5426 43.7179 88.9088 43.9248 88.3044 43.9248C87.7 43.9248 87.1251 43.7178 86.6829 43.3334C86.2407 42.949 85.931 42.3723 85.8573 41.6626C85.7836 40.9529 85.7542 40.2432 85.7542 39.5187C85.7542 38.4836 85.8131 37.4486 85.8868 36.4136C85.931 35.8665 86.1963 35.3934 86.5944 35.0385C86.9924 34.6836 87.5378 34.4471 88.0832 34.3879C88.1864 34.3879 88.2897 34.3731 88.3782 34.3731C89.0857 34.3731 89.6754 34.6689 90.2208 35.1272L90.2944 35.0533C90.1617 34.9054 90.0732 34.6984 89.8816 34.5801C89.3951 34.2549 88.8646 34.107 88.3339 34.107C87.6411 34.107 86.9777 34.3584 86.4765 34.8167C85.9606 35.2603 85.6215 35.9109 85.5625 36.6945C85.5036 37.5078 85.474 38.3358 85.474 39.1638C85.474 39.9918 85.5036 40.8198 85.5625 41.633C85.6215 42.4167 85.9753 43.0525 86.4912 43.5108C87.0072 43.9692 87.6706 44.2206 88.3634 44.2206C88.8793 44.2206 89.4246 44.0727 89.8964 43.7474C89.9848 43.6883 90.0586 43.5996 90.1175 43.5256C90.1765 43.4369 90.2354 43.363 90.2944 43.2891L90.3387 43.2447C90.5303 43.0525 90.722 42.8455 90.9136 42.6533C90.9726 42.5941 91.0168 42.5202 91.0757 42.461C91.1052 42.4315 91.1348 42.4019 91.1495 42.3871C91.1642 42.3723 91.1936 42.3575 91.2083 42.3575C91.5032 42.3575 91.8127 42.3428 92.1223 42.3428C92.4319 42.3428 92.7562 42.3428 93.1248 42.3428C92.8005 43.0377 92.5204 43.6144 92.2551 44.191L92.1666 44.2354C92.1666 44.2354 92.1222 44.2502 92.078 44.2797C92.0338 44.2945 91.9896 44.3241 91.9306 44.3832C91.5179 44.9008 90.9726 45.2704 90.3682 45.5365C89.7638 45.7879 89.0856 45.921 88.4222 45.921C87.4493 45.921 86.4765 45.64 85.7247 45.1077C85.6657 45.0634 85.6068 45.0486 85.5625 45.0338C85.5183 45.019 85.474 45.0042 85.4445 45.0042L85.2971 44.9599C85.2971 44.9599 85.194 44.8416 85.135 44.7825C84.3537 44.0432 83.7937 43.1708 83.7642 42.0766C83.7347 41.1155 83.7199 40.1544 83.7199 39.1786C83.7199 38.2027 83.7199 37.2416 83.7642 36.2657C83.7937 35.1863 84.3537 34.314 85.135 33.5599C85.2382 33.4564 85.3415 33.3381 85.4299 33.2198C85.5479 33.1607 85.6805 33.1163 85.7985 33.0424C86.624 32.5397 87.4789 32.2883 88.3634 32.2883C88.8056 32.2883 89.2477 32.3474 89.7047 32.4657C90.5597 32.6875 91.3705 33.2198 91.9749 33.8852C92.5646 34.5506 92.9478 35.349 93.0067 36.1179C92.7266 36.1179 92.4319 36.1179 92.1518 36.1179C91.8865 36.1179 91.6211 36.1179 91.3557 36.1031C91.3115 36.1031 91.2526 36.0735 91.1936 36.0144C91.1346 35.9552 91.0757 35.8813 91.0167 35.8222C90.7956 35.5856 90.5893 35.3342 90.3829 35.0829L90.2944 35.142C90.486 35.4673 90.6777 35.7926 90.8841 36.1179C90.9136 36.1622 90.9577 36.2214 91.0167 36.2657C91.0757 36.3101 91.1346 36.3396 91.1936 36.3544C91.5621 36.3544 91.9159 36.3544 92.2844 36.3544C92.6087 36.3544 92.9478 36.3544 93.2721 36.3544H93.3312V36.2953C93.0511 33.8704 90.8841 32.0222 88.4813 32.0222C88.3044 32.0222 88.1423 32.0221 87.9654 32.0517C87.0219 32.1552 86.0932 32.3622 85.3709 33.1163C84.2358 33.8112 83.602 34.8758 83.543 36.1622C83.4988 37.1529 83.4692 38.1436 83.4692 39.149C83.4692 40.1544 83.4988 41.1451 83.543 42.1358C83.5872 43.1708 84.0147 44.0727 84.7812 44.7381L84.5306 44.6494L85.2971 45.2556C85.3856 45.3295 85.4889 45.4182 85.5921 45.5069C85.6952 45.5957 85.8132 45.6844 85.9458 45.7435C86.506 45.9801 87.0809 46.1723 87.6263 46.3793H87.6557H87.6852H89.1298C89.3951 46.3054 89.6901 46.2314 89.9701 46.1427C90.4419 45.9801 90.9136 45.8027 91.3264 45.5365C91.7391 45.2704 92.1076 44.9155 92.3877 44.4424L92.6677 43.9544C92.7856 43.777 92.8889 43.57 92.9774 43.363C93.1395 42.9638 93.2427 42.5498 93.3607 42.1062V42.0322H93.3017C93.0658 42.0322 92.8593 42.047 92.6677 42.047" fill="#010202"/>
</svg>
