<svg width="96" height="58" viewBox="0 0 96 58" fill="none" xmlns="http://www.w3.org/2000/svg">
<path d="M21.1607 55.0002C20.3909 56.3336 18.4664 56.3336 17.6966 55.0002L13.2428 47.286C12.473 45.9526 13.4352 44.286 14.9748 44.286L23.8825 44.286C25.4221 44.286 26.3844 45.9526 25.6146 47.286L21.1607 55.0002Z" fill="#D9D9D9"/>
<rect y="0.857178" width="96" height="45.7143" rx="10" fill="#D9D9D9"/>
<path d="M50.5926 24.2416C50.5926 30.213 45.7517 35.0547 39.7794 35.0547C33.8072 35.0547 28.9663 30.2139 28.9663 24.2416C28.9663 18.2693 33.8072 13.4285 39.7794 13.4285C45.7517 13.4285 50.5926 18.2693 50.5926 24.2416Z" fill="black"/>
<path d="M63.2069 13.4285C57.2355 13.4285 52.3938 18.2693 52.3938 24.2416C52.3938 30.2139 57.2347 35.0547 63.2069 35.0547V13.4293V13.4285Z" fill="black"/>
<path d="M64.9668 35.0546H72.1756L68.5712 27.8458L64.9668 35.0546Z" fill="black"/>
<path d="M21.7581 13.4286H14.5494H9.14282V20.6373H14.5494V27.8461V35.0549H21.7581V27.8461V20.6373H25.3625L28.9661 13.4286H21.7581Z" fill="black"/>
<path d="M86.5922 35.0547H79.3834L72.1755 20.6372L75.7799 13.4285L86.5922 35.0547Z" fill="black"/>
</svg>
