<svg width="30" height="30" viewBox="0 0 30 30" fill="none" xmlns="http://www.w3.org/2000/svg">
<path d="M25.35 4.31251C19.57 -1.44749 10.21 -1.43749 4.45 4.34251C-0.26 9.07251 -1.22 16.3625 2.1 22.1425L0 29.8025L7.83 27.7425C10 28.9225 12.42 29.5425 14.89 29.5425C23.07 29.5425 29.73 22.9525 29.8 14.7625C29.76 10.8225 28.15 7.06251 25.33 4.31251H25.35ZM14.9 27.0525C12.7 27.0525 10.54 26.4625 8.65 25.3325L8.2 25.0725L3.55 26.2925L4.79 21.7625L4.5 21.2925C0.98 15.4825 2.83 7.92251 8.64 4.40251C14.45 0.882513 22.01 2.73251 25.53 8.54251C26.67 10.4225 27.28 12.5725 27.31 14.7625C27.24 21.5725 21.7 27.0525 14.89 27.0425L14.9 27.0525ZM21.64 17.8525C21.27 17.6625 19.46 16.7725 19.12 16.6525C18.78 16.5325 18.53 16.4625 18.29 16.8425C18.05 17.2225 17.34 18.0425 17.12 18.2925C16.9 18.5425 16.69 18.5725 16.32 18.3825C14.19 17.5325 12.42 15.9825 11.3 13.9925C10.92 13.3425 11.68 13.3825 12.39 11.9725C12.49 11.7625 12.48 11.5225 12.36 11.3225C12.27 11.1325 11.53 9.32251 11.22 8.58251C10.92 7.86251 10.61 7.96251 10.39 7.95251C10.17 7.94251 9.93 7.94251 9.69 7.94251C9.31 7.95251 8.96 8.12251 8.71 8.40251C7.87 9.20251 7.4 10.3225 7.42 11.4825C7.54 12.8725 8.06 14.2025 8.92 15.3025C10.51 17.6825 12.68 19.6025 15.23 20.8825C17.57 21.8925 18.49 21.9825 19.66 21.8025C20.7 21.5925 21.6 20.9525 22.15 20.0425C22.39 19.4925 22.47 18.8825 22.36 18.2825C22.27 18.1125 22.03 18.0225 21.66 17.8425L21.64 17.8525Z" fill="white"/>
</svg>
