<svg width="20" height="21" viewBox="0 0 20 21" fill="none" xmlns="http://www.w3.org/2000/svg">
<path d="M12.1492 4.84696C12.9909 5.01118 13.7644 5.42282 14.3708 6.0292C14.9772 6.63559 15.3888 7.40912 15.5531 8.25081M12.1492 1.40002C13.8979 1.59429 15.5286 2.37738 16.7735 3.62072C18.0184 4.86406 18.8035 6.49374 19 8.24219M18.1383 15.1188V17.704C18.1392 17.944 18.0901 18.1816 17.9939 18.4015C17.8978 18.6214 17.7568 18.8188 17.5799 18.981C17.4031 19.1432 17.1943 19.2668 16.967 19.3437C16.7396 19.4205 16.4987 19.4491 16.2597 19.4275C13.608 19.1394 11.0608 18.2333 8.82292 16.782C6.74082 15.4589 4.97557 13.6937 3.65252 11.6116C2.19617 9.36348 1.28985 6.80395 1.00699 4.14034C0.98546 3.90204 1.01378 3.66187 1.09015 3.43512C1.16652 3.20836 1.28927 3 1.45059 2.82328C1.6119 2.64657 1.80824 2.50538 2.02711 2.4087C2.24598 2.31203 2.48258 2.26198 2.72185 2.26176H5.30705C5.72525 2.25764 6.13069 2.40574 6.44778 2.67843C6.76487 2.95113 6.97198 3.32983 7.03051 3.74394C7.13963 4.57126 7.34199 5.38359 7.63373 6.16541C7.74967 6.47385 7.77476 6.80906 7.70603 7.13131C7.63731 7.45357 7.47764 7.74938 7.24595 7.98367L6.15155 9.07807C7.37827 11.2355 9.16456 13.0218 11.322 14.2485L12.4164 13.1541C12.6506 12.9224 12.9465 12.7627 13.2687 12.694C13.591 12.6253 13.9262 12.6504 14.2346 12.7663C15.0164 13.058 15.8288 13.2604 16.6561 13.3695C17.0747 13.4286 17.457 13.6394 17.7303 13.9619C18.0035 14.2845 18.1488 14.6962 18.1383 15.1188Z" stroke="#2B2B2B" stroke-width="1.5" stroke-linecap="round" stroke-linejoin="round"/>
</svg>
