<svg width="21" height="24" viewBox="0 0 21 24" fill="none" xmlns="http://www.w3.org/2000/svg">
<path d="M16.5338 12.6707C16.5338 11.2046 15.3453 10.0161 13.8792 10.0161C12.4131 10.0161 11.2246 11.2046 11.2246 12.6707V14.1824C11.2246 15.6485 12.4131 16.837 13.8792 16.837C15.3453 16.837 16.5338 15.6485 16.5338 14.1824V12.6707Z" stroke="#7A7E83" stroke-width="1.5" stroke-miterlimit="10" stroke-linejoin="round"/>
<path d="M8.40137 23.1766V19.835C8.40137 18.9992 8.85725 18.2299 9.58857 17.8263C10.4671 17.3403 11.8648 16.8369 13.8767 16.8369C15.8887 16.8369 17.2848 17.3403 18.1649 17.8263C18.8978 18.2299 19.3521 18.9992 19.3521 19.835V20.8133V23.1766" stroke="#7A7E83" stroke-width="1.5" stroke-miterlimit="10" stroke-linejoin="round"/>
<path d="M16.2 13.1296H20V1H1V13.1296H3.11006V16.8369L7.37091 13.1296H10.7111" stroke="#7A7E83" stroke-width="1.5" stroke-miterlimit="10" stroke-linejoin="round"/>
</svg>
