<svg width="18" height="26" viewBox="0 0 18 26" fill="none" xmlns="http://www.w3.org/2000/svg">
<path fill-rule="evenodd" clip-rule="evenodd" d="M2 3C2 2.73478 2.10536 2.48043 2.29289 2.29289C2.48043 2.10536 2.73478 2 3 2H15C15.2652 2 15.5196 2.10536 15.7071 2.29289C15.8946 2.48043 16 2.73478 16 3V23C16 23.2652 15.8946 23.5196 15.7071 23.7071C15.5196 23.8946 15.2652 24 15 24H3C2.73478 24 2.48043 23.8946 2.29289 23.7071C2.10536 23.5196 2 23.2652 2 23V3ZM3 0C2.20435 0 1.44129 0.316071 0.87868 0.87868C0.316071 1.44129 0 2.20435 0 3V23C0 23.7956 0.316071 24.5587 0.87868 25.1213C1.44129 25.6839 2.20435 26 3 26H15C15.7956 26 16.5587 25.6839 17.1213 25.1213C17.6839 24.5587 18 23.7956 18 23V3C18 2.20435 17.6839 1.44129 17.1213 0.87868C16.5587 0.316071 15.7956 0 15 0H3ZM6 21.3C5.81435 21.3 5.6363 21.3738 5.50502 21.505C5.37375 21.6363 5.3 21.8143 5.3 22C5.3 22.1857 5.37375 22.3637 5.50502 22.495C5.6363 22.6262 5.81435 22.7 6 22.7H12C12.1857 22.7 12.3637 22.6262 12.495 22.495C12.6262 22.3637 12.7 22.1857 12.7 22C12.7 21.8143 12.6262 21.6363 12.495 21.505C12.3637 21.3738 12.1857 21.3 12 21.3H6Z" fill="white"/>
</svg>
