<svg width="23" height="23" viewBox="0 0 23 23" fill="none" xmlns="http://www.w3.org/2000/svg">
<path d="M16.9997 13.4869V14.9923C17.0003 15.1321 16.9716 15.2704 16.9155 15.3985C16.8594 15.5265 16.7771 15.6414 16.6739 15.7359C16.5707 15.8304 16.4489 15.9023 16.3163 15.9471C16.1836 15.9919 16.0431 16.0085 15.9036 15.9959C14.3564 15.8281 12.8702 15.3005 11.5645 14.4554C10.3496 13.685 9.31963 12.657 8.54767 11.4446C7.69793 10.1355 7.16912 8.64504 7.00408 7.09398C6.99152 6.95521 7.00804 6.81536 7.0526 6.68331C7.09716 6.55127 7.16878 6.42994 7.2629 6.32703C7.35703 6.22413 7.47158 6.14191 7.59929 6.08562C7.72699 6.02932 7.86504 6.00018 8.00465 6.00005H9.51304C9.75705 5.99765 9.99361 6.08389 10.1786 6.24269C10.3636 6.40148 10.4845 6.622 10.5186 6.86315C10.5823 7.34491 10.7004 7.81794 10.8706 8.27321C10.9382 8.45281 10.9529 8.64801 10.9128 8.83567C10.8727 9.02332 10.7795 9.19557 10.6443 9.33201L10.0058 9.9693C10.7215 11.2256 11.7638 12.2658 13.0226 12.9801L13.6611 12.3428C13.7978 12.2079 13.9704 12.1149 14.1584 12.0749C14.3465 12.0349 14.5421 12.0495 14.722 12.117C15.1782 12.2869 15.6522 12.4047 16.1349 12.4683C16.3791 12.5027 16.6022 12.6254 16.7616 12.8133C16.9211 13.0011 17.0058 13.2408 16.9997 13.4869Z" fill="#2B2B2B"/>
<path d="M3.47014 16.2221L4.18697 16.4426L4.28663 16.1187L4.10941 15.8298L3.47014 16.2221ZM2 21L1.28317 20.7794L0.88231 22.0822L2.19734 21.7236L2 21ZM6.96975 19.6446L7.34757 18.9967L7.07586 18.8383L6.77242 18.921L6.96975 19.6446ZM21.25 11C21.25 16.1086 17.1086 20.25 12 20.25V21.75C17.9371 21.75 22.75 16.9371 22.75 11H21.25ZM12 1.75C17.1086 1.75 21.25 5.89137 21.25 11H22.75C22.75 5.06294 17.9371 0.25 12 0.25V1.75ZM2.75 11C2.75 5.89137 6.89137 1.75 12 1.75V0.25C6.06294 0.25 1.25 5.06294 1.25 11H2.75ZM4.10941 15.8298C3.24725 14.4246 2.75 12.7715 2.75 11H1.25C1.25 13.0562 1.82804 14.9797 2.83086 16.6143L4.10941 15.8298ZM2.71683 21.2206L4.18697 16.4426L2.7533 16.0015L1.28317 20.7794L2.71683 21.2206ZM6.77242 18.921L1.80266 20.2764L2.19734 21.7236L7.16709 20.3682L6.77242 18.921ZM12 20.25C10.3024 20.25 8.71368 19.7934 7.34757 18.9967L6.59194 20.2925C8.1812 21.2193 10.0298 21.75 12 21.75V20.25Z" fill="#2B2B2B"/>
</svg>
