<svg width="32" height="33" viewBox="0 0 32 33" fill="none" xmlns="http://www.w3.org/2000/svg">
<path d="M19.0338 5.24149C19.0677 5.11457 19.1263 4.9956 19.2063 4.89135C19.2862 4.7871 19.3859 4.69963 19.4997 4.63392C19.6134 4.56822 19.739 4.52558 19.8693 4.50843C19.9995 4.49128 20.1319 4.49997 20.2588 4.53399C22.1126 5.01767 23.804 5.98679 25.1587 7.34153C26.5135 8.69627 27.4826 10.3877 27.9663 12.2415C28.0003 12.3684 28.009 12.5007 27.9918 12.631C27.9747 12.7612 27.932 12.8868 27.8663 13.0006C27.8006 13.1143 27.7131 13.214 27.6089 13.294C27.5047 13.3739 27.3857 13.4325 27.2588 13.4665C27.1743 13.4887 27.0873 13.5 27 13.5002C26.7796 13.5002 26.5655 13.4274 26.3907 13.2932C26.216 13.1589 26.0905 12.9707 26.0338 12.7577C25.6393 11.2444 24.8483 9.86362 23.7425 8.75776C22.6366 7.65191 21.2559 6.86097 19.7425 6.46649C19.6155 6.43267 19.4964 6.37415 19.392 6.29427C19.2876 6.21438 19.2 6.1147 19.1342 6.00093C19.0683 5.88715 19.0256 5.76151 19.0084 5.6312C18.9911 5.50089 18.9998 5.36846 19.0338 5.24149ZM18.7425 10.4665C20.4663 10.9265 21.5738 12.034 22.0338 13.7577C22.0905 13.9707 22.216 14.1589 22.3907 14.2932C22.5655 14.4274 22.7796 14.5002 23 14.5002C23.0873 14.5 23.1743 14.4887 23.2588 14.4665C23.3857 14.4325 23.5047 14.3739 23.6089 14.294C23.7131 14.214 23.8006 14.1143 23.8663 14.0006C23.932 13.8868 23.9747 13.7612 23.9918 13.631C24.009 13.5007 24.0003 13.3684 23.9663 13.2415C23.3263 10.8465 21.6538 9.17398 19.2588 8.53398C19.1319 8.50009 18.9995 8.49151 18.8693 8.50876C18.7391 8.526 18.6136 8.56872 18.4999 8.63447C18.3862 8.70023 18.2866 8.78773 18.2067 8.89199C18.1268 8.99625 18.0683 9.11522 18.0344 9.24211C18.0005 9.369 17.9919 9.50132 18.0092 9.63153C18.0264 9.76173 18.0691 9.88726 18.1349 10.001C18.2006 10.1146 18.2881 10.2143 18.3924 10.2942C18.4967 10.374 18.6156 10.4326 18.7425 10.4665ZM28.985 22.3852C28.7621 24.079 27.9303 25.6338 26.6449 26.7591C25.3595 27.8844 23.7084 28.5033 22 28.5002C12.075 28.5002 4.00001 20.4252 4.00001 10.5002C3.99695 8.79185 4.61587 7.14076 5.74118 5.85535C6.86649 4.56995 8.42122 3.73812 10.115 3.51524C10.5433 3.46294 10.9771 3.55056 11.3515 3.76503C11.7259 3.9795 12.0209 4.30932 12.1925 4.70524L14.8325 10.599V10.614C14.9639 10.9171 15.0181 11.2479 14.9904 11.5771C14.9627 11.9062 14.8539 12.2234 14.6738 12.5002C14.6513 12.534 14.6275 12.5652 14.6025 12.5965L12 15.6815C12.9363 17.584 14.9263 19.5565 16.8538 20.4952L19.8963 17.9065C19.9261 17.8814 19.9574 17.858 19.99 17.8365C20.2666 17.652 20.5849 17.5394 20.916 17.5088C21.2471 17.4783 21.5806 17.5307 21.8863 17.6615L21.9025 17.669L27.7913 20.3077C28.1879 20.4787 28.5185 20.7735 28.7337 21.1479C28.9489 21.5224 29.037 21.9565 28.985 22.3852ZM27 22.1352C27 22.1352 26.9913 22.1352 26.9863 22.1352L21.1113 19.504L18.0675 22.0927C18.038 22.1177 18.0071 22.1411 17.975 22.1627C17.6872 22.3547 17.3545 22.4688 17.0094 22.4938C16.6644 22.5188 16.3187 22.4538 16.0063 22.3052C13.665 21.174 11.3313 18.8577 10.1988 16.5415C10.0488 16.2313 9.9815 15.8876 10.0034 15.5438C10.0253 15.2 10.1357 14.8676 10.3238 14.579C10.345 14.5451 10.3688 14.5129 10.395 14.4827L13 11.394L10.375 5.51899C10.3745 5.514 10.3745 5.50897 10.375 5.50399C9.16283 5.66211 8.04986 6.25669 7.24453 7.17638C6.43919 8.09607 5.99674 9.27779 6.00001 10.5002C6.00464 14.7423 7.69184 18.8092 10.6914 21.8088C13.691 24.8084 17.758 26.4956 22 26.5002C23.2217 26.5044 24.4031 26.0635 25.3233 25.2599C26.2436 24.4563 26.8396 23.3451 27 22.134V22.1352Z" fill="#052014"/>
</svg>
