<svg width="80" height="108" viewBox="0 0 80 108" fill="none" xmlns="http://www.w3.org/2000/svg">
<path d="M18.4587 18.4587H6.14664V30.7707H18.4587V18.4587ZM24.6147 12.3027V36.9173H6.15599V49.2293H0V12.3027H24.6147Z" fill="white"/>
<path d="M43.0825 0H36.9265V36.9267H43.0825V0Z" fill="white"/>
<path d="M73.8533 12.3027H79.9999V36.9173H55.3853V12.3027H61.5413V30.7707H73.8533V12.3027Z" fill="white"/>
<path d="M6.14664 82.2793H0V57.6646H24.6147V63.8206H6.14664V82.2793Z" fill="white"/>
<path d="M36.9265 57.6646H43.0825V82.2793H36.9265V57.6646ZM36.9265 45.3526H43.0825V51.5086H36.9265V45.3526Z" fill="white"/>
<path d="M12.695 103.606C13.0687 103.298 13.2555 102.858 13.2555 102.298C13.2555 101.738 13.0687 101.28 12.695 100.972C12.3214 100.663 11.7796 100.504 11.0789 100.504H9.18269V104.072H11.0789C11.7889 104.072 12.3214 103.914 12.695 103.606ZM13.2369 100.504C13.7506 100.943 14.0122 101.542 14.0122 102.298C14.0122 103.054 13.7506 103.653 13.2369 104.092C12.723 104.531 12.0038 104.736 11.0977 104.736H9.18269V106.987H8.42603V99.8508H11.0977C12.0131 99.8508 12.723 100.065 13.2369 100.504Z" fill="white"/>
<path d="M17.2071 99.8508H16.4504V106.987H17.2071V99.8508Z" fill="white"/>
<path d="M26.3055 99.8508V106.987H25.689L21.1024 101.196V106.987H20.3457V99.8508H20.9715L25.5675 105.643V99.8508H26.3055Z" fill="white"/>
<path d="M35.4132 99.8508V106.987H34.666V103.699H30.2007V106.987H29.4534V99.8508H30.2007V103.036H34.666V99.8508H35.4132Z" fill="white"/>
<path d="M43.5966 106.333V106.987H38.5522V99.8508H43.4472V100.504H39.3089V103.045H42.9987V103.69H39.3089V106.333H43.5966Z" fill="white"/>
<path d="M46.9405 99.8508H46.1838V106.987H46.9405V99.8508Z" fill="white"/>
<path d="M54.3579 103.615C54.7316 103.307 54.9184 102.868 54.9184 102.298C54.9184 101.728 54.7316 101.28 54.3579 100.972C53.9843 100.663 53.4425 100.504 52.7418 100.504H50.8456V104.082H52.7418C53.4518 104.082 53.9843 103.923 54.3579 103.615ZM54.9558 106.987L53.321 104.698C53.1343 104.717 52.9474 104.727 52.7513 104.727H50.8363V106.987H50.0796V99.8508H52.7513C53.6667 99.8508 54.3766 100.065 54.8904 100.504C55.4042 100.943 55.6658 101.542 55.6658 102.298C55.6658 102.858 55.5256 103.326 55.2453 103.708C54.9652 104.092 54.5634 104.372 54.0403 104.54L55.7872 106.987H54.9558Z" fill="white"/>
<path d="M62.9146 105.997C63.3724 105.745 63.7274 105.39 63.989 104.942C64.2505 104.493 64.3812 103.988 64.3812 103.428C64.3812 102.867 64.2505 102.363 63.989 101.915C63.7274 101.467 63.3724 101.112 62.9146 100.85C62.4569 100.597 61.9525 100.467 61.3826 100.467C60.8128 100.467 60.3084 100.597 59.8506 100.85C59.3929 101.102 59.0286 101.457 58.7671 101.915C58.5056 102.363 58.3747 102.867 58.3747 103.428C58.3747 103.988 58.5056 104.493 58.7671 104.942C59.0286 105.39 59.3929 105.745 59.8506 105.997C60.3084 106.249 60.8221 106.38 61.3826 106.38C61.9431 106.38 62.4569 106.249 62.9146 105.997ZM59.4677 106.577C58.8979 106.258 58.4401 105.829 58.1226 105.277C57.7956 104.727 57.6367 104.11 57.6367 103.419C57.6367 102.727 57.7956 102.111 58.1226 101.56C58.4495 101.009 58.8979 100.579 59.4677 100.262C60.0375 99.9441 60.6821 99.7849 61.3921 99.7849C62.102 99.7849 62.7371 99.9441 63.307 100.252C63.8768 100.561 64.3252 100.999 64.6521 101.551C64.9791 102.102 65.1379 102.727 65.1379 103.409C65.1379 104.092 64.9698 104.717 64.6521 105.268C64.3252 105.82 63.8768 106.258 63.307 106.567C62.7371 106.875 62.102 107.034 61.3921 107.034C60.6821 107.034 60.0469 106.875 59.4677 106.557" fill="white"/>
<path d="M68.0803 106.791C67.5945 106.623 67.2209 106.399 66.95 106.118L67.2489 105.539C67.5104 105.801 67.856 106.007 68.2764 106.165C68.7061 106.324 69.1451 106.408 69.6029 106.408C70.2381 106.408 70.7239 106.287 71.0414 106.053C71.3591 105.82 71.5179 105.512 71.5179 105.138C71.5179 104.848 71.4339 104.624 71.2564 104.456C71.0789 104.288 70.8733 104.157 70.6211 104.063C70.3689 103.97 70.0233 103.868 69.5749 103.764C69.033 103.624 68.6127 103.493 68.2858 103.373C67.9681 103.251 67.688 103.054 67.4637 102.793C67.2395 102.532 67.118 102.186 67.118 101.747C67.118 101.383 67.2115 101.056 67.4077 100.766C67.5945 100.467 67.8934 100.233 68.2858 100.056C68.6781 99.8784 69.1732 99.7942 69.7524 99.7942C70.1634 99.7942 70.5557 99.8509 70.948 99.9625C71.3404 100.075 71.6767 100.224 71.9663 100.43L71.714 101.028C71.4151 100.832 71.0975 100.682 70.7519 100.579C70.4156 100.486 70.0793 100.43 69.7524 100.43C69.1265 100.43 68.6594 100.551 68.3418 100.794C68.0242 101.037 67.8654 101.345 67.8654 101.728C67.8654 102.018 67.9495 102.242 68.127 102.419C68.3045 102.588 68.5193 102.728 68.7809 102.821C69.0424 102.914 69.3974 103.018 69.8364 103.12C70.3595 103.251 70.7799 103.373 71.1069 103.503C71.4338 103.634 71.7047 103.821 71.929 104.073C72.1531 104.325 72.2652 104.671 72.2652 105.11C72.2652 105.474 72.1718 105.801 71.9756 106.091C71.7795 106.389 71.4805 106.623 71.0789 106.791C70.6772 106.959 70.182 107.053 69.6029 107.053C69.0704 107.053 68.566 106.968 68.0803 106.801" fill="white"/>
</svg>
