<svg width="31" height="25" viewBox="0 0 31 25" fill="none" xmlns="http://www.w3.org/2000/svg">
<path fill-rule="evenodd" clip-rule="evenodd" d="M28 2.2H3C2.55817 2.2 2.2 2.55817 2.2 3V22C2.2 22.4418 2.55817 22.8 3 22.8H28C28.4418 22.8 28.8 22.4418 28.8 22V3C28.8 2.55817 28.4418 2.2 28 2.2ZM3 0C1.34315 0 0 1.34315 0 3V22C0 23.6569 1.34315 25 3 25H28C29.6569 25 31 23.6569 31 22V3C31 1.34315 29.6569 0 28 0H3Z" fill="#2B2B2B"/>
<path fill-rule="evenodd" clip-rule="evenodd" d="M30.1028 2.92011L14.9779 12.8295L0.866957 2.89959L2.13304 1.10041L15.0221 10.1705L28.8972 1.07989L30.1028 2.92011Z" fill="#2B2B2B"/>
</svg>
