<svg width="20" height="20" viewBox="0 0 20 20" fill="none" xmlns="http://www.w3.org/2000/svg">
<path d="M12.1492 4.44694C12.9909 4.61115 13.7644 5.0228 14.3708 5.62918C14.9772 6.23556 15.3888 7.0091 15.5531 7.85078M12.1492 1C13.8979 1.19427 15.5286 1.97736 16.7735 3.22069C18.0184 4.46403 18.8035 6.09372 19 7.84217M18.1383 14.7188V17.304C18.1392 17.544 18.0901 17.7816 17.9939 18.0014C17.8978 18.2213 17.7568 18.4187 17.5799 18.581C17.4031 18.7432 17.1943 18.8667 16.967 18.9436C16.7396 19.0205 16.4987 19.0491 16.2597 19.0275C13.608 18.7393 11.0608 17.8332 8.82292 16.382C6.74082 15.0589 4.97557 13.2936 3.65252 11.2115C2.19617 8.96346 1.28985 6.40393 1.00699 3.74031C0.98546 3.50202 1.01378 3.26185 1.09015 3.03509C1.16652 2.80834 1.28927 2.59997 1.45059 2.42326C1.6119 2.24654 1.80824 2.10535 2.02711 2.00868C2.24598 1.912 2.48258 1.86196 2.72185 1.86173H5.30705C5.72525 1.85762 6.13069 2.00571 6.44778 2.27841C6.76487 2.55111 6.97198 2.92981 7.03051 3.34392C7.13963 4.17124 7.34199 4.98356 7.63373 5.76539C7.74967 6.07382 7.77476 6.40903 7.70603 6.73129C7.63731 7.05355 7.47764 7.34935 7.24595 7.58365L6.15155 8.67805C7.37827 10.8354 9.16456 12.6217 11.322 13.8485L12.4164 12.7541C12.6506 12.5224 12.9465 12.3627 13.2687 12.294C13.591 12.2252 13.9262 12.2503 14.2346 12.3663C15.0164 12.658 15.8288 12.8604 16.6561 12.9695C17.0747 13.0285 17.457 13.2394 17.7303 13.5619C18.0035 13.8845 18.1488 14.2962 18.1383 14.7188Z" stroke="#7A7E83" stroke-width="1.5" stroke-linecap="round" stroke-linejoin="round"/>
</svg>
