<svg width="15" height="14" viewBox="0 0 15 14" fill="none" xmlns="http://www.w3.org/2000/svg">
<path d="M4.56227 0.0494978C3.81661 0.08456 3.30938 0.203772 2.86526 0.379083C2.40477 0.559069 2.01441 0.799829 1.62639 1.18785C1.23837 1.57821 0.999946 1.96857 0.822297 2.42905C0.649323 2.87551 0.532449 3.38275 0.499724 4.1284C0.467 4.87406 0.459987 5.11248 0.462325 7.01286C0.467 8.91323 0.474012 9.15165 0.509074 9.89965C0.544137 10.6453 0.663348 11.1525 0.838659 11.5967C1.01865 12.0571 1.25941 12.4475 1.64743 12.8355C2.03779 13.2235 2.42815 13.462 2.88863 13.6396C3.33275 13.8126 3.84232 13.9295 4.58798 13.9622C5.33364 13.9949 5.57206 14.0019 7.47243 13.9996C9.37281 13.9949 9.61123 13.9879 10.3592 13.9528C11.1049 13.9178 11.6121 13.7986 12.0562 13.6233C12.5167 13.4433 12.9071 13.2025 13.2951 12.8145C13.6831 12.4241 13.9215 12.0338 14.0992 11.5733C14.2722 11.1292 14.389 10.6196 14.4218 9.87393C14.4545 9.12594 14.4615 8.88752 14.4592 6.98714C14.4545 5.08677 14.4475 4.84835 14.4124 4.10269C14.3774 3.35703 14.2581 2.8498 14.0828 2.40334C13.9028 1.94286 13.6621 1.5525 13.2741 1.16448C12.8837 0.776455 12.4933 0.538031 12.0329 0.360383C11.5864 0.187409 11.0792 0.0705351 10.3335 0.0378104C9.58785 0.00508561 9.34943 -0.00192684 7.44906 0.000410645C5.54869 0.00508561 5.31026 0.0120981 4.56461 0.0471603M4.64408 12.7023C3.96153 12.6719 3.59221 12.5597 3.34444 12.4639C3.01719 12.3376 2.78344 12.1857 2.53801 11.9426C2.29257 11.6972 2.14064 11.4658 2.01208 11.1385C1.91624 10.8907 1.8017 10.5214 1.76898 9.83887C1.73391 9.10023 1.7269 8.8805 1.72223 7.01052C1.71755 5.14287 1.72456 4.92081 1.75729 4.18217C1.78768 3.49962 1.89988 3.1303 1.99571 2.88253C2.12194 2.55528 2.27387 2.32153 2.51697 2.07609C2.76241 1.83066 2.99382 1.67872 3.32106 1.55016C3.56884 1.45432 3.93816 1.33979 4.62071 1.30706C5.35935 1.272 5.57907 1.26499 7.44906 1.26031C9.31904 1.25564 9.53877 1.26265 10.2774 1.29538C10.96 1.32576 11.3293 1.43796 11.5771 1.5338C11.9043 1.66002 12.138 1.81196 12.3835 2.05506C12.6289 2.30049 12.7809 2.5319 12.9094 2.85915C13.0053 3.10459 13.1198 3.47625 13.1525 4.15879C13.1876 4.89744 13.1946 5.1195 13.1993 6.98714C13.2039 8.85713 13.1969 9.07685 13.1642 9.8155C13.1338 10.498 13.0216 10.8697 12.9258 11.1151C12.7996 11.4424 12.6476 11.6761 12.4045 11.9216C12.1591 12.167 11.9277 12.3189 11.6004 12.4475C11.355 12.5433 10.9833 12.6579 10.3008 12.6906C9.56214 12.7257 9.34242 12.7327 7.47243 12.7373C5.60478 12.742 5.38272 12.735 4.64408 12.7023ZM10.3499 3.25886C10.3499 3.72168 10.7285 4.09802 11.1914 4.09802C11.6542 4.09802 12.0305 3.71934 12.0305 3.25652C12.0305 2.7937 11.6519 2.41737 11.189 2.41737C10.7262 2.41737 10.3499 2.79604 10.3499 3.25886ZM3.86804 7.00584C3.87271 8.99037 5.48324 10.5962 7.46776 10.5939C9.45228 10.5892 11.0581 8.97868 11.0558 6.99416C11.0511 5.00963 9.44059 3.40378 7.45373 3.40612C5.46921 3.4108 3.86336 5.02132 3.8657 7.00818M5.12794 7.00351C5.12794 5.71555 6.16812 4.66836 7.45607 4.66602C8.74402 4.66369 9.79121 5.7062 9.79355 6.99416C9.79589 8.28211 8.75337 9.3293 7.46542 9.33164C6.17747 9.33398 5.13028 8.29146 5.12794 7.00351Z" fill="#2B2B2B"/>
</svg>
