<svg width="65" height="19" viewBox="0 0 65 19" fill="none" xmlns="http://www.w3.org/2000/svg">
<path d="M11.7002 5.57129C8.11071 5.57129 5.2002 8.4818 5.2002 12.0713C5.2002 15.6608 8.11071 18.5713 11.7002 18.5713C15.2897 18.5713 18.2002 15.6608 18.2002 12.0713C18.2002 8.4818 15.2897 5.57129 11.7002 5.57129ZM11.7002 14.857C10.1617 14.857 8.91448 13.6097 8.91448 12.0713C8.91448 10.5328 10.1617 9.28557 11.7002 9.28557C13.2387 9.28557 14.4859 10.5328 14.4859 12.0713C14.4859 13.6097 13.2387 14.857 11.7002 14.857Z" fill="white"/>
<path d="M18.2001 0H14.4858V12.0714H18.2001V0Z" fill="white"/>
<path d="M55.7248 12.0714C57.2536 12.0714 58.5001 10.8242 58.5001 9.27606C58.5001 7.72794 57.2536 6.5 55.7248 6.5C54.196 6.5 52.9287 7.74651 52.9287 9.27606C52.9287 10.8056 54.1752 12.0714 55.7248 12.0714Z" fill="#EA1C1C"/>
<path d="M55.7048 0C60.8387 0 65.0001 4.16743 65.0001 9.28646C65.0001 14.4055 60.8387 18.5714 55.7048 18.5714C50.5709 18.5714 46.4287 14.4255 46.4287 9.28646C46.4287 4.14737 50.5902 0 55.7048 0ZM55.6936 14.8467C58.7802 14.8467 61.2762 12.35 61.2762 9.26417C61.2762 6.17834 58.7802 3.70389 55.6936 3.70389C52.6071 3.70389 50.1333 6.20286 50.1333 9.26417C50.1333 12.3255 52.6316 14.8467 55.6936 14.8467Z" fill="#808080"/>
<path d="M3.71429 5.57129H0V18.5713H3.71429V5.57129Z" fill="white"/>
<path d="M25.257 0H19.6855V3.71429H25.257C26.2702 3.72989 27.0866 4.5552 27.0866 5.57143C27.0866 6.58766 26.2702 7.41297 25.257 7.42783V7.41817H21.5427V11.1325H25.257V11.1429C26.2702 11.1585 27.0866 11.9838 27.0866 13C27.0866 14.0162 26.2702 14.8415 25.257 14.8564H19.6855V18.5707H25.257C28.3339 18.5707 30.8284 16.0762 30.8284 12.9993C30.8284 11.5722 30.2913 10.2707 29.4088 9.28497C30.2913 8.2992 30.8284 6.99771 30.8284 5.57069C30.8284 2.49451 28.3339 0 25.257 0Z" fill="#808080"/>
<path d="M38.814 5.57143C37.8334 5.57143 36.9041 5.78909 36.0706 6.1776C36.2303 4.79069 37.4077 3.71429 38.837 3.71429H44.4084V0H38.837C35.2468 0 32.337 2.91051 32.337 6.5V11.5254C32.3221 11.7052 32.314 11.8872 32.314 12.0714C32.314 15.6609 35.2245 18.5714 38.814 18.5714C42.4035 18.5714 45.314 15.6609 45.314 12.0714C45.314 8.48194 42.4035 5.57143 38.814 5.57143ZM38.814 14.8571C37.3803 14.8571 36.1998 13.7741 36.0461 12.3812H36.0513V11.7186C36.2251 10.3465 37.3951 9.28571 38.814 9.28571C40.3524 9.28571 41.5997 10.533 41.5997 12.0714C41.5997 13.6099 40.3524 14.8571 38.814 14.8571Z" fill="#808080"/>
</svg>
