<svg width="375" height="59" viewBox="0 0 375 59" fill="none" xmlns="http://www.w3.org/2000/svg">
<g opacity="0.3">
<mask id="mask0_810_553" style="mask-type:alpha" maskUnits="userSpaceOnUse" x="0" y="0" width="375" height="59">
<rect width="375" height="59" fill="#D9D9D9"/>
</mask>
<g mask="url(#mask0_810_553)">
<path d="M118.42 -2.58312e-06L118.42 59.095L177.515 59.095L177.515 0L118.42 -2.58312e-06ZM133.195 44.3199L133.195 14.775L162.745 14.775L162.745 44.3251L133.195 44.3251L133.195 44.3199Z" fill="#1E2256"/>
<path d="M44.5504 44.3249L44.5504 14.7749L15.0004 14.7749L15.0004 44.3249L44.5504 44.3249Z" fill="#F58220"/>
<path d="M236.615 58.9158L236.615 0L177.521 -2.58312e-06L177.521 58.9158L236.615 58.9158Z" fill="#F58220"/>
<path d="M236.615 59.095L236.615 0L233.206 -1.49039e-07L233.206 59.095L236.615 59.095Z" fill="white"/>
<path d="M229.796 59.095L229.796 0L226.387 -1.49039e-07L226.387 59.095L229.796 59.095Z" fill="white"/>
<path d="M222.977 59.095L222.977 0L219.567 -1.49039e-07L219.567 59.095L222.977 59.095Z" fill="white"/>
<path d="M216.158 59.095L216.158 0L212.748 -1.49039e-07L212.748 59.095L216.158 59.095Z" fill="white"/>
<path d="M208.77 59.095L208.77 0L205.361 -1.4904e-07L205.361 59.095L208.77 59.095Z" fill="white"/>
<path d="M201.951 59.095L201.951 0L198.541 -1.49039e-07L198.541 59.095L201.951 59.095Z" fill="white"/>
<path d="M195.132 59.095L195.132 0L191.722 -1.49039e-07L191.722 59.095L195.132 59.095Z" fill="white"/>
<path d="M188.313 59.095L188.313 0L184.903 -1.49039e-07L184.903 59.095L188.313 59.095Z" fill="white"/>
<path d="M180.925 59.095L180.925 0L177.515 -1.49039e-07L177.515 59.095L180.925 59.095Z" fill="white"/>
<path d="M295.71 59.095L295.71 -2.58312e-06L354.805 59.095L295.71 59.095Z" fill="#868C56"/>
<path d="M354.805 0L354.805 59.095L295.71 -2.58312e-06L354.805 0Z" fill="#BABB9C"/>
<path d="M59.3253 59.095L59.3253 -2.58312e-06L118.42 59.095L59.3253 59.095Z" fill="#1E2256"/>
<path d="M269.329 16.884C269.329 11.6364 273.584 7.38721 278.826 7.38721C284.069 7.38721 288.323 11.6416 288.323 16.884C288.323 22.1264 284.069 26.3807 278.826 26.3807C273.584 26.3807 269.329 22.1264 269.329 16.884Z" fill="#1E2256"/>
<path d="M269.329 42.2104C269.329 36.9628 273.584 32.7136 278.826 32.7136C284.069 32.7136 288.323 36.968 288.323 42.2104C288.323 47.4528 284.069 51.7072 278.826 51.7072C273.584 51.7072 269.329 47.4528 269.329 42.2104Z" fill="#F58220"/>
<path d="M372.749 42.2104C372.749 36.9628 377.004 32.7136 382.246 32.7136C387.488 32.7136 391.743 36.968 391.743 42.2104C391.743 47.4528 387.488 51.7072 382.246 51.7072C377.004 51.7072 372.749 47.4528 372.749 42.2104Z" fill="#1E2256"/>
<path d="M244.003 16.884C244.003 11.6364 248.257 7.38721 253.5 7.38721C258.742 7.38721 262.996 11.6416 262.996 16.884C262.996 22.1264 258.742 26.3807 253.5 26.3807C248.257 26.3807 244.003 22.1264 244.003 16.884Z" fill="#F58220"/>
<path d="M244.003 42.2104C244.003 36.9628 248.257 32.7136 253.5 32.7136C258.742 32.7136 262.996 36.968 262.996 42.2104C262.996 47.4528 258.742 51.7072 253.5 51.7072C248.257 51.7072 244.003 47.4528 244.003 42.2104Z" fill="#1E2256"/>
<path d="M413.905 0L399.13 -6.45836e-07C399.13 8.16056 392.516 14.775 384.355 14.775C376.195 14.775 369.58 8.16056 369.58 -1.93751e-06L354.805 -2.58335e-06C354.805 16.3211 368.034 29.55 384.355 29.55C400.676 29.55 413.905 16.3211 413.905 0Z" fill="#F58220"/>
</g>
</g>
</svg>
