<svg width="1366" height="60" viewBox="0 0 1366 60" fill="none" xmlns="http://www.w3.org/2000/svg">
<g opacity="0.3">
<mask id="mask0_810_174" style="mask-type:alpha" maskUnits="userSpaceOnUse" x="0" y="0" width="1366" height="60">
<rect width="1366" height="60" fill="#D9D9D9"/>
</mask>
<g mask="url(#mask0_810_174)">
<path d="M1225.23 45.2514L1225.23 15.7515L1195.73 15.7515L1195.73 45.2514L1225.23 45.2514Z" fill="#868C56"/>
<path d="M1062.99 59.9963L1062.99 1.00146L1003.99 1.00146L1003.99 59.9963L1062.99 59.9963Z" fill="#F58220"/>
<path d="M1357.97 60.0014L1357.97 30.5015L1298.98 30.5015L1298.98 60.0014L1357.97 60.0014Z" fill="#1E2256"/>
<path d="M1003.99 23.1265L1003.99 8.55542L945 8.55542L945 23.1265L1003.99 23.1265Z" fill="#868C56"/>
<path d="M1003.99 52.6265L1003.99 38.0554L945 38.0554L945 52.6265L1003.99 52.6265Z" fill="#868C56"/>
<path d="M1357.97 59.9963L1357.97 1.00146L1416.97 59.9963L1357.97 59.9963Z" fill="#868C56"/>
<path d="M1298.97 59.9963L1239.98 59.9963L1298.97 1.00146L1298.97 59.9963Z" fill="#868C56"/>
<path d="M1298.97 1.00171L1328.47 1.00171L1298.97 30.5017L1298.97 1.00171Z" fill="#F58220"/>
<path d="M1328.47 1.00146L1357.97 1.00146L1328.47 30.5014L1328.47 1.00146Z" fill="#F58220"/>
<path d="M1036.65 17.8571C1036.65 12.6185 1040.9 8.37646 1046.13 8.37646C1051.37 8.37646 1055.61 12.6236 1055.61 17.8571C1055.61 23.0907 1051.37 27.3378 1046.13 27.3378C1040.9 27.3378 1036.65 23.0907 1036.65 17.8571Z" fill="white"/>
<path d="M1036.65 43.1408C1036.65 37.9022 1040.9 33.6602 1046.13 33.6602C1051.37 33.6602 1055.61 37.9073 1055.61 43.1408C1055.61 48.3744 1051.37 52.6215 1046.13 52.6215C1040.9 52.6215 1036.65 48.3744 1036.65 43.1408Z" fill="white"/>
<path d="M1011.37 17.8571C1011.37 12.6185 1015.62 8.37646 1020.85 8.37646C1026.08 8.37646 1030.33 12.6236 1030.33 17.8571C1030.33 23.0907 1026.08 27.3378 1020.85 27.3378C1015.62 27.3378 1011.37 23.0907 1011.37 17.8571Z" fill="white"/>
<path d="M1011.37 43.1408C1011.37 37.9022 1015.62 33.6602 1020.85 33.6602C1026.08 33.6602 1030.33 37.9073 1030.33 43.1408C1030.33 48.3744 1026.08 52.6215 1020.85 52.6215C1015.62 52.6215 1011.37 48.3744 1011.37 43.1408Z" fill="white"/>
<path d="M1151.48 30.5017L1180.98 1.00171L1180.98 59.9965L1151.48 30.5017Z" fill="#F58220"/>
<path d="M1151.48 30.5014L1121.98 59.9963L1121.98 1.00146L1151.48 30.5014Z" fill="#868C56"/>
<path d="M1062.99 59.9963L1062.99 1.00146L1121.98 1.00146C1121.98 33.5833 1095.57 59.9963 1062.99 59.9963Z" fill="#868C56"/>
<path d="M1062.99 37.8766L1062.99 1.00171L1099.86 1.00171C1099.86 21.3685 1083.36 37.8766 1062.99 37.8766Z" fill="white"/>
<path d="M944.977 59.9955L944.977 1.00073L885.982 1.00073L885.982 59.9955L944.977 59.9955Z" fill="#868C56"/>
<path d="M826.982 59.9955L826.982 1.00073L767.988 1.00073L767.988 59.9955L826.982 59.9955Z" fill="#1E2256"/>
<path d="M649.993 23.1255L649.993 8.55444L590.998 8.55444L590.998 23.1255L649.993 23.1255Z" fill="#F58220"/>
<path d="M649.993 52.6258L649.993 38.0547L590.998 38.0547L590.998 52.6258L649.993 52.6258Z" fill="#F58220"/>
<path d="M885.798 59.9955L885.798 1.00073L826.982 1.00073L826.982 59.9955L885.798 59.9955Z" fill="#1E2256"/>
<path d="M885.977 4.40457L885.977 1.00073L826.982 1.00073L826.982 4.40457L885.977 4.40457Z" fill="white"/>
<path d="M885.977 11.2122L885.977 7.80835L826.982 7.80835L826.982 11.2122L885.977 11.2122Z" fill="white"/>
<path d="M885.977 18.0198L885.977 14.616L826.982 14.616L826.982 18.0198L885.977 18.0198Z" fill="white"/>
<path d="M885.977 24.8274L885.977 21.4236L826.982 21.4236L826.982 24.8274L885.977 24.8274Z" fill="white"/>
<path d="M885.977 32.2027L885.977 28.7988L826.982 28.7988L826.982 32.2027L885.977 32.2027Z" fill="white"/>
<path d="M885.977 39.01L885.977 35.6062L826.982 35.6062L826.982 39.01L885.977 39.01Z" fill="white"/>
<path d="M885.977 45.8179L885.977 42.4141L826.982 42.4141L826.982 45.8179L885.977 45.8179Z" fill="white"/>
<path d="M885.977 52.6255L885.977 49.2217L826.982 49.2217L826.982 52.6255L885.977 52.6255Z" fill="white"/>
<path d="M885.977 60.0005L885.977 56.5967L826.982 56.5967L826.982 60.0005L885.977 60.0005Z" fill="white"/>
<path d="M708.988 60.0006L708.988 1.00073L767.988 60.0006L708.988 60.0006Z" fill="#F58220"/>
<path d="M782.732 30.5007C782.732 22.354 789.336 15.7507 797.482 15.7507C805.629 15.7507 812.232 22.354 812.232 30.5007C812.232 38.6474 805.629 45.2507 797.482 45.2507C789.336 45.2507 782.732 38.6474 782.732 30.5007Z" fill="#233971"/>
<path d="M473.003 30.5007L531.998 1.00073L531.998 60.0006L473.003 30.5007Z" fill="#1E2256"/>
<path d="M885.977 60.0007L885.977 1.00586L944.972 1.00586C944.972 33.5877 918.559 60.0007 885.977 60.0007Z" fill="#BABB9C"/>
<path d="M885.977 37.8757L885.977 1.00073L922.852 1.00073C922.852 21.3676 906.344 37.8757 885.977 37.8757Z" fill="#F58220"/>
<path d="M590.998 1.00073L590.998 59.9955L532.003 59.9955C532.003 27.4137 558.416 1.00073 590.998 1.00073Z" fill="#868C56"/>
<path d="M649.993 60.0007C649.993 43.7072 663.199 30.5007 679.493 30.5007C695.786 30.5007 708.993 43.7072 708.993 60.0007L649.998 60.0007L649.993 60.0007Z" fill="#868C56"/>
<path d="M708.988 1.00073C708.988 17.2942 695.781 30.5007 679.488 30.5007C663.194 30.5007 649.988 17.2942 649.988 1.00073L708.982 1.00073L708.988 1.00073Z" fill="#1E2256"/>
<path d="M473 60.095L473 1L413.905 0.999997L413.905 60.095L473 60.095Z" fill="#233971"/>
<path d="M413.905 0.999997L413.905 60.095L473 60.095L473 1L413.905 0.999997ZM428.68 45.3199L428.68 15.775L458.225 15.775L458.225 45.3251L428.675 45.3251L428.68 45.3199Z" fill="#1E2256"/>
<path d="M118.42 0.999997L118.42 60.095L177.515 60.095L177.515 1L118.42 0.999997ZM133.195 45.3199L133.195 15.775L162.745 15.775L162.745 45.3251L133.195 45.3251L133.195 45.3199Z" fill="#1E2256"/>
<path d="M44.5503 45.3252L44.5503 15.7751L15.0003 15.7751L15.0003 45.3252L44.5503 45.3252Z" fill="#F58220"/>
<path d="M236.615 59.9158L236.615 1L177.521 0.999997L177.521 59.9158L236.615 59.9158Z" fill="#F58220"/>
<path d="M236.615 60.095L236.615 1L233.206 1L233.206 60.095L236.615 60.095Z" fill="white"/>
<path d="M229.796 60.095L229.796 1L226.387 1L226.387 60.095L229.796 60.095Z" fill="white"/>
<path d="M222.977 60.095L222.977 1L219.567 1L219.567 60.095L222.977 60.095Z" fill="white"/>
<path d="M216.157 60.095L216.157 1L212.748 1L212.748 60.095L216.157 60.095Z" fill="white"/>
<path d="M208.77 60.095L208.77 1L205.36 1L205.36 60.095L208.77 60.095Z" fill="white"/>
<path d="M201.951 60.095L201.951 1L198.541 1L198.541 60.095L201.951 60.095Z" fill="white"/>
<path d="M195.132 60.095L195.132 1L191.722 1L191.722 60.095L195.132 60.095Z" fill="white"/>
<path d="M188.312 60.095L188.312 1L184.903 1L184.903 60.095L188.312 60.095Z" fill="white"/>
<path d="M180.925 60.095L180.925 1L177.515 1L177.515 60.095L180.925 60.095Z" fill="white"/>
<path d="M295.71 60.095L295.71 0.999997L354.805 60.095L295.71 60.095Z" fill="#868C56"/>
<path d="M354.805 1L354.805 60.095L295.71 0.999997L354.805 1Z" fill="#BABB9C"/>
<path d="M59.3252 60.095L59.3252 0.999997L118.42 60.095L59.3252 60.095Z" fill="#1E2256"/>
<path d="M269.329 17.884C269.329 12.6364 273.584 8.38721 278.826 8.38721C284.068 8.38721 288.323 12.6416 288.323 17.884C288.323 23.1264 284.068 27.3807 278.826 27.3807C273.584 27.3807 269.329 23.1264 269.329 17.884Z" fill="#1E2256"/>
<path d="M269.329 43.2106C269.329 37.9631 273.584 33.7139 278.826 33.7139C284.068 33.7139 288.323 37.9682 288.323 43.2106C288.323 48.453 284.068 52.7074 278.826 52.7074C273.584 52.7074 269.329 48.453 269.329 43.2106Z" fill="#F58220"/>
<path d="M372.749 43.2106C372.749 37.9631 377.003 33.7139 382.246 33.7139C387.488 33.7139 391.743 37.9682 391.743 43.2106C391.743 48.453 387.488 52.7074 382.246 52.7074C377.003 52.7074 372.749 48.453 372.749 43.2106Z" fill="#1E2256"/>
<path d="M244.003 17.8842C244.003 12.6367 248.257 8.38745 253.5 8.38745C258.742 8.38745 262.996 12.6418 262.996 17.8842C262.996 23.1266 258.742 27.381 253.5 27.381C248.257 27.381 244.003 23.1266 244.003 17.8842Z" fill="#F58220"/>
<path d="M244.003 43.2104C244.003 37.9628 248.257 33.7136 253.5 33.7136C258.742 33.7136 262.996 37.968 262.996 43.2104C262.996 48.4528 258.742 52.7072 253.5 52.7072C248.257 52.7072 244.003 48.4528 244.003 43.2104Z" fill="#1E2256"/>
<path d="M413.905 1L399.13 0.999999C399.13 9.16056 392.516 15.775 384.355 15.775C376.195 15.775 369.58 9.16056 369.58 0.999998L354.805 0.999997C354.805 17.3211 368.034 30.55 384.355 30.55C400.676 30.55 413.905 17.3211 413.905 1Z" fill="#F58220"/>
</g>
</g>
</svg>
