<svg width="17" height="16" viewBox="0 0 17 16" fill="none" xmlns="http://www.w3.org/2000/svg">
<path d="M14.1287 2.32533C12.6228 0.826667 10.6238 0 8.49346 0C4.10157 0 0.529631 3.55733 0.526951 7.928C0.526951 9.32533 0.89406 10.6907 1.59076 11.8907L0.459961 16L4.68304 14.8987C5.846 15.5307 7.15633 15.864 8.49078 15.864H8.49346C12.8854 15.864 16.4573 12.3067 16.46 7.936C16.46 5.81867 15.632 3.82667 14.1287 2.328V2.32533ZM8.49346 14.5227H8.49078C7.30371 14.5227 6.13808 14.2053 5.11982 13.6053L4.87865 13.4613L2.37321 14.1147L3.04312 11.6827L2.88502 11.4347C2.22315 10.3867 1.87212 9.17333 1.87212 7.928C1.87212 4.296 4.84381 1.33867 8.49613 1.33867C10.2647 1.33867 11.926 2.02667 13.1774 3.272C14.4288 4.51733 15.1148 6.17333 15.1148 7.93333C15.1148 11.568 12.1431 14.5227 8.49346 14.5227ZM12.1243 9.58933C11.926 9.49067 10.9453 9.01067 10.7631 8.944C10.5809 8.87733 10.4469 8.84533 10.3156 9.04267C10.1816 9.24 9.80111 9.688 9.68589 9.81867C9.57066 9.952 9.45276 9.968 9.25447 9.86933C9.05618 9.77067 8.41307 9.56 7.65474 8.88533C7.06254 8.36 6.66328 7.712 6.54805 7.512C6.43283 7.31467 6.53466 7.20533 6.63649 7.10667C6.72491 7.01867 6.83477 6.87467 6.93392 6.76C7.03307 6.64533 7.0679 6.56267 7.13221 6.42933C7.1992 6.296 7.16437 6.18133 7.11613 6.08267C7.06522 5.984 6.66864 5.008 6.50251 4.61067C6.34173 4.224 6.17559 4.27733 6.05501 4.26933C5.93978 4.264 5.8058 4.26133 5.6745 4.26133C5.5432 4.26133 5.32615 4.312 5.14394 4.50933C4.96172 4.70667 4.44723 5.18667 4.44723 6.16267C4.44723 7.13867 5.16001 8.08 5.25916 8.21333C5.3583 8.34667 6.66328 10.3467 8.6596 11.2053C9.13389 11.4107 9.50636 11.5307 9.79308 11.6213C10.27 11.7733 10.7041 11.752 11.0471 11.6987C11.4303 11.6427 12.2262 11.2187 12.3896 10.7573C12.5558 10.2933 12.5558 9.89867 12.5048 9.816C12.4539 9.73333 12.3226 9.68267 12.1243 9.584V9.58933Z" fill="#2B2B2B"/>
</svg>
