<svg width="38" height="38" viewBox="0 0 38 38" fill="none" xmlns="http://www.w3.org/2000/svg">
<g id="icon whats">
<circle id="fundo" cx="19" cy="19" r="19" fill="#19CC60"/>
<path id="Vector" d="M23.9997 21.4869V22.9923C24.0003 23.1321 23.9716 23.2704 23.9155 23.3985C23.8594 23.5265 23.7771 23.6414 23.6739 23.7359C23.5707 23.8304 23.4489 23.9023 23.3163 23.9471C23.1836 23.9919 23.0431 24.0085 22.9036 23.9959C21.3564 23.8281 19.8702 23.3005 18.5645 22.4554C17.3496 21.685 16.3196 20.657 15.5477 19.4446C14.6979 18.1355 14.1691 16.645 14.0041 15.094C13.9915 14.9552 14.008 14.8154 14.0526 14.6833C14.0972 14.5513 14.1688 14.4299 14.2629 14.327C14.357 14.2241 14.4716 14.1419 14.5993 14.0856C14.727 14.0293 14.865 14.0002 15.0046 14H16.513C16.7571 13.9977 16.9936 14.0839 17.1786 14.2427C17.3636 14.4015 17.4845 14.622 17.5186 14.8631C17.5823 15.3449 17.7004 15.8179 17.8706 16.2732C17.9382 16.4528 17.9529 16.648 17.9128 16.8357C17.8727 17.0233 17.7795 17.1956 17.6443 17.332L17.0058 17.9693C17.7215 19.2256 18.7638 20.2658 20.0226 20.9801L20.6611 20.3428C20.7978 20.2079 20.9704 20.1149 21.1584 20.0749C21.3465 20.0349 21.5421 20.0495 21.722 20.117C22.1782 20.2869 22.6522 20.4047 23.1349 20.4683C23.3791 20.5027 23.6022 20.6254 23.7616 20.8133C23.9211 21.0011 24.0058 21.2408 23.9997 21.4869Z" fill="white"/>
<path id="Union" d="M10.4701 24.2221L11.187 24.4426L11.2866 24.1187L11.1094 23.8298L10.4701 24.2221ZM9 29L8.28317 28.7794L7.88231 30.0822L9.19734 29.7236L9 29ZM13.9698 27.6446L14.3476 26.9967L14.0759 26.8383L13.7724 26.921L13.9698 27.6446ZM28.25 19C28.25 24.1086 24.1086 28.25 19 28.25V29.75C24.9371 29.75 29.75 24.9371 29.75 19H28.25ZM19 9.75C24.1086 9.75 28.25 13.8914 28.25 19H29.75C29.75 13.0629 24.9371 8.25 19 8.25V9.75ZM9.75 19C9.75 13.8914 13.8914 9.75 19 9.75V8.25C13.0629 8.25 8.25 13.0629 8.25 19H9.75ZM11.1094 23.8298C10.2473 22.4246 9.75 20.7715 9.75 19H8.25C8.25 21.0562 8.82804 22.9797 9.83086 24.6143L11.1094 23.8298ZM9.71683 29.2206L11.187 24.4426L9.7533 24.0015L8.28317 28.7794L9.71683 29.2206ZM13.7724 26.921L8.80266 28.2764L9.19734 29.7236L14.1671 28.3682L13.7724 26.921ZM19 28.25C17.3024 28.25 15.7137 27.7934 14.3476 26.9967L13.5919 28.2925C15.1812 29.2193 17.0298 29.75 19 29.75V28.25Z" fill="white"/>
</g>
</svg>
