<svg width="30" height="30" viewBox="0 0 30 30" fill="none" xmlns="http://www.w3.org/2000/svg">
<g id="icon localizacao">
<g id="Group 140">
<g id="Group 139">
<path id="Vector" d="M23 13C23 19.2222 15 24.5556 15 24.5556C15 24.5556 7 19.2222 7 13C7 10.8783 7.84285 8.84344 9.34315 7.34315C10.8434 5.84285 12.8783 5 15 5C17.1217 5 19.1566 5.84285 20.6569 7.34315C22.1571 8.84344 23 10.8783 23 13Z" stroke="#2B2B2B" stroke-width="1.5" stroke-miterlimit="16"/>
<path id="Vector_2" d="M14.9997 15.6668C16.4724 15.6668 17.6663 14.4729 17.6663 13.0002C17.6663 11.5274 16.4724 10.3335 14.9997 10.3335C13.5269 10.3335 12.333 11.5274 12.333 13.0002C12.333 14.4729 13.5269 15.6668 14.9997 15.6668Z" stroke="#2B2B2B" stroke-width="1.5" stroke-miterlimit="16"/>
</g>
</g>
</g>
</svg>
