<svg width="30" height="30" viewBox="0 0 30 30" fill="none" xmlns="http://www.w3.org/2000/svg">
<g id="icon localizacao">
<g id="Group 152">
<path id="Vector" d="M15.0006 17.0929C16.27 17.0929 17.299 16.0732 17.299 14.8153C17.299 13.5574 16.27 12.5377 15.0006 12.5377C13.7312 12.5377 12.7021 13.5574 12.7021 14.8153C12.7021 16.0732 13.7312 17.0929 15.0006 17.0929Z" stroke="#2B2B2B" stroke-width="1.5" stroke-miterlimit="16"/>
<path id="Vector_2" d="M24 16.2535V13.574L21.1788 13.1185C21.0526 12.6675 20.8813 12.2388 20.665 11.8324L22.319 9.5548L20.4081 7.66129L18.1412 9.27792C17.7221 9.04123 17.2714 8.85367 16.7982 8.71969L16.352 6H13.648L13.2018 8.71969C12.7286 8.85813 12.2779 9.0457 11.8588 9.27792L9.59189 7.66129L7.68102 9.5548L9.335 11.8324C9.11868 12.2343 8.94742 12.6675 8.82123 13.1185L6 13.574V16.2535L8.87531 16.718C9.00601 17.1378 9.18177 17.5352 9.39359 17.9104L7.67651 20.2728L9.58738 22.1663L12.0075 20.438C12.3726 20.6301 12.7601 20.7864 13.1612 20.9025L13.6435 23.8276H16.3475L16.8297 20.9025C17.2308 20.7819 17.6184 20.6256 17.9835 20.438L20.4036 22.1663L22.3145 20.2728L20.5974 17.9104C20.8092 17.5352 20.985 17.1378 21.1157 16.718L23.991 16.2535H24Z" stroke="#2B2B2B" stroke-width="1.5" stroke-miterlimit="16"/>
</g>
</g>
</svg>
