<svg width="62" height="65" viewBox="0 0 62 65" fill="none" xmlns="http://www.w3.org/2000/svg">
<g id="Group 225">
<path id="Vector" d="M8.42578 47.6539C8.42578 47.6539 9.3612 46.8306 9.85158 46.4525C15.1041 42.4168 22.2699 41.8035 28.1574 44.8645C33.1888 47.4803 38.6029 49.2335 42.1178 50.9474C44.4478 52.0845 44.1332 55.4732 41.6302 56.1621C38.3818 57.0555 33.0244 56.599 24.96 52.6054C23.6787 51.9724 22.2813 51.5944 20.8498 51.5159C20.0334 51.4711 19.1405 51.5159 18.2647 51.7456" stroke="#2B2B2B" stroke-width="1.5" stroke-linecap="round" stroke-linejoin="round"/>
<path id="Vector_2" d="M8.42578 61.5098C8.42578 61.5098 15.9264 59.2709 22.159 61.3478C27.5952 63.1577 33.4607 63.2202 38.8941 61.4018C47.9846 58.3617 58.3318 52.3979 60.8508 46.1557C61.5907 44.3202 59.8624 42.4478 57.9844 43.0473C53.6241 44.4396 43.051 51.7842 43.051 51.7842" stroke="#2B2B2B" stroke-width="1.5" stroke-linecap="round" stroke-linejoin="round"/>
<path id="Vector_3" d="M1 60.3546C1 62.0114 2.34315 63.3546 4 63.3546H5.4259C7.08276 63.3546 8.4259 62.0114 8.4259 60.3546V47.7898C8.4259 46.1329 7.08276 44.7898 5.4259 44.7898H4C2.34315 44.7898 1 46.1329 1 47.7898V55.4463V60.3546Z" stroke="#2B2B2B" stroke-width="1.5" stroke-linecap="round" stroke-linejoin="round"/>
<path id="Vector_4" d="M46.2875 18.4897C46.2875 16.956 47.0085 15.5926 48.129 14.7175C49.2144 13.8698 50.2086 12.5432 49.6815 11.2708C49.1542 9.99797 47.5127 9.76373 46.1452 9.93167C44.7337 10.105 43.2601 9.64982 42.1757 8.56544C41.0918 7.48154 40.6365 6.00762 40.8093 4.59656C40.9767 3.22894 40.7425 1.58663 39.4696 1.05936C38.1977 0.532526 36.8716 1.5263 36.0248 2.61184C35.1492 3.73447 33.7845 4.45651 32.2514 4.45651C30.7189 4.45651 29.3546 3.73497 28.4789 2.613C27.6315 1.52725 26.3055 0.532972 25.033 1.05994C23.7604 1.58693 23.525 3.22821 23.6932 4.59527C23.867 6.00777 23.4119 7.48247 22.3272 8.56544C21.2427 9.64987 19.769 10.105 18.3575 9.93164C16.9901 9.76367 15.3487 9.9979 14.8215 11.2707C14.2944 12.543 15.2885 13.8697 16.3743 14.7169C17.4965 15.5926 18.2182 16.957 18.2182 18.4897C18.2182 20.0224 17.4965 21.3869 16.3743 22.2625C15.2885 23.1098 14.2944 24.4364 14.8215 25.7088C15.3487 26.9815 16.9901 27.2158 18.3575 27.0478C19.769 26.8744 21.2427 27.3296 22.3272 28.414C23.4111 29.4979 23.8663 30.9718 23.6936 32.3829C23.5262 33.7505 23.7603 35.3928 25.0333 35.9201C26.3052 36.4469 27.6313 35.4531 28.478 34.3676C29.3537 33.245 30.7184 32.5229 32.2514 32.5229C33.784 32.5229 35.1483 33.2445 36.0239 34.3664C36.8713 35.4522 38.1974 36.4465 39.4699 35.9195C40.7425 35.3925 40.9779 33.7512 40.8097 32.3842C40.6358 30.9717 41.091 29.497 42.1757 28.414C43.2601 27.3296 44.7338 26.8744 46.1454 27.0478C47.5128 27.2158 49.1541 26.9815 49.6814 25.7088C50.2085 24.4364 49.2142 23.1099 48.1288 22.262C47.0078 21.3864 46.2875 20.0221 46.2875 18.4897Z" fill="#F5F5F5" stroke="#2B2B2B" stroke-width="1.5" stroke-linecap="round" stroke-linejoin="round"/>
<path id="Vector_5" d="M32.1032 23.7147C35.1067 23.7036 37.5326 21.2507 37.5216 18.2358C37.5106 15.2209 35.0668 12.7858 32.0633 12.7969C29.0598 12.8079 26.6339 15.2609 26.6449 18.2758C26.6559 21.2907 29.0997 23.7257 32.1032 23.7147Z" stroke="#2B2B2B" stroke-width="1.5" stroke-linecap="round" stroke-linejoin="round"/>
</g>
</svg>
