<svg width="56" height="64" viewBox="0 0 56 64" fill="none" xmlns="http://www.w3.org/2000/svg">
<g id="Group 226">
<g id="Vector">
<mask id="path-1-inside-1_10244_14300" fill="white">
<path d="M11.7139 14.4858H4.02354C1.80255 14.4858 0 16.2985 0 18.5319V56.3401C0 58.9533 3.10886 60.3171 5.03162 58.5474L8.0657 55.7549C8.6195 55.2452 9.34466 54.9623 10.0973 54.9623H36.9495C39.1705 54.9623 40.973 53.1497 40.973 50.9163V42.9078"/>
</mask>
<path d="M8.0657 55.7549L7.04989 54.6512L8.0657 55.7549ZM5.03162 58.5474L6.04744 59.6511L5.03162 58.5474ZM11.7139 12.9858H4.02354V15.9858H11.7139V12.9858ZM4.02354 12.9858C0.966247 12.9858 -1.5 15.4779 -1.5 18.5319H1.5C1.5 17.119 2.63884 15.9858 4.02354 15.9858V12.9858ZM-1.5 18.5319V56.3401H1.5V18.5319H-1.5ZM6.04744 59.6511L9.08151 56.8586L7.04989 54.6512L4.01581 57.4437L6.04744 59.6511ZM10.0973 56.4623H36.9495V53.4623H10.0973V56.4623ZM36.9495 56.4623C40.0068 56.4623 42.473 53.9702 42.473 50.9163H39.473C39.473 52.3292 38.3342 53.4623 36.9495 53.4623V56.4623ZM42.473 50.9163V42.9078H39.473V50.9163H42.473ZM9.08151 56.8586C9.35841 56.6038 9.72099 56.4623 10.0973 56.4623V53.4623C8.96833 53.4623 7.88059 53.8867 7.04989 54.6512L9.08151 56.8586ZM-1.5 56.3401C-1.5 60.2598 3.1633 62.3056 6.04744 59.6511L4.01581 57.4437C3.05443 58.3286 1.5 57.6466 1.5 56.3401H-1.5Z" fill="#2B2B2B" mask="url(#path-1-inside-1_10244_14300)"/>
</g>
<path id="Vector_2" d="M53.4075 48.4231L53.3921 48.4077L53.3759 48.3932L47.629 43.2711C46.942 42.6588 46.054 42.3205 45.1339 42.3205H17.2515C14.6987 42.3205 12.625 40.2419 12.625 37.6674V4.28674C12.625 2.46055 14.0992 0.984375 15.9074 0.984375H51.1909C52.9991 0.984375 54.4733 2.46055 54.4733 4.28674V47.982C54.4733 48.5382 53.8006 48.8166 53.4075 48.4231Z" fill="#F5F5F5" stroke="#2B2B2B" stroke-width="1.5" stroke-miterlimit="10"/>
<path id="Vector_3" d="M20.0117 32.2483H46.4232" stroke="#2B2B2B" stroke-width="1.5" stroke-miterlimit="10"/>
<path id="Vector_4" d="M20.0117 21.8438H46.4232" stroke="#2B2B2B" stroke-width="1.5" stroke-miterlimit="10"/>
<path id="Vector_5" d="M20.0117 11.4392H46.4232" stroke="#2B2B2B" stroke-width="1.5" stroke-miterlimit="10"/>
</g>
</svg>
