<svg width="55" height="67" viewBox="0 0 55 67" fill="none" xmlns="http://www.w3.org/2000/svg">
<g id="Group 227">
<path id="Vector" d="M13.6399 13.8149C12.8405 13.8149 12.0741 14.134 11.5109 14.7014L1.87096 24.4118C1.31308 24.9738 1 25.7335 1 26.5254V62.0287C1 64.249 2.78889 66.0509 4.99306 66.0509H37.5045C39.7087 66.0509 41.4976 64.249 41.4976 62.0287V17.8372C41.4976 15.6169 39.7087 13.8149 37.5045 13.8149H13.6399Z" fill="#F5F5F5" stroke="#2B2B2B" stroke-width="1.5" stroke-miterlimit="10"/>
<path id="Vector_2" d="M10.3906 35.531H31.5198" stroke="#2B2B2B" stroke-width="1.5" stroke-miterlimit="10"/>
<path id="Vector_3" d="M10.3906 41.9871H31.5198" stroke="#2B2B2B" stroke-width="1.5" stroke-miterlimit="10"/>
<path id="Vector_4" d="M10.3906 48.4434H31.5198" stroke="#2B2B2B" stroke-width="1.5" stroke-miterlimit="10"/>
<path id="Vector_5" d="M10.3906 55.4863H31.5198" stroke="#2B2B2B" stroke-width="1.5" stroke-miterlimit="10"/>
<path id="Vector_6" d="M1 25.5534H9.1515C10.8084 25.5534 12.1515 24.2102 12.1515 22.5534V13.8149" stroke="#2B2B2B" stroke-width="1.5" stroke-miterlimit="10"/>
<path id="Vector_7" d="M41.4818 50.204H49.7935C52.0193 50.204 53.8257 48.415 53.8257 46.2108V5.48271C53.8257 3.27846 52.0193 1.4895 49.7935 1.4895H19.708C17.4822 1.4895 15.6758 3.27846 15.6758 5.48271V14.1134" stroke="#2B2B2B" stroke-width="1.5" stroke-miterlimit="10"/>
</g>
</svg>
