<svg width="48" height="62" viewBox="0 0 48 62" fill="none" xmlns="http://www.w3.org/2000/svg">
<g id="Group 229">
<path id="Vector" d="M43.15 0.851318H7.65603C5.40818 0.851318 3.58594 2.67363 3.58594 4.92155V56.5538C3.58594 58.8018 5.40818 60.6241 7.65603 60.6241H43.15C45.3978 60.6241 47.2201 58.8018 47.2201 56.5538V4.92155C47.2201 2.67363 45.3978 0.851318 43.15 0.851318Z" stroke="#2B2B2B" stroke-width="1.5" stroke-miterlimit="10"/>
<path id="Vector_2" d="M0 7.42627H7.17273" stroke="#2B2B2B" stroke-width="1.5" stroke-miterlimit="10"/>
<path id="Vector_3" d="M0 12.2083H7.17273" stroke="#2B2B2B" stroke-width="1.5" stroke-miterlimit="10"/>
<path id="Vector_4" d="M0 17.5876H7.17273" stroke="#2B2B2B" stroke-width="1.5" stroke-miterlimit="10"/>
<path id="Vector_5" d="M0 22.9673H7.17273" stroke="#2B2B2B" stroke-width="1.5" stroke-miterlimit="10"/>
<path id="Vector_6" d="M0 28.3467H7.17273" stroke="#2B2B2B" stroke-width="1.5" stroke-miterlimit="10"/>
<path id="Vector_7" d="M0 33.1287H7.17273" stroke="#2B2B2B" stroke-width="1.5" stroke-miterlimit="10"/>
<path id="Vector_8" d="M0 38.5081H7.17273" stroke="#2B2B2B" stroke-width="1.5" stroke-miterlimit="10"/>
<path id="Vector_9" d="M0 43.8877H7.17273" stroke="#2B2B2B" stroke-width="1.5" stroke-miterlimit="10"/>
<path id="Vector_10" d="M0 48.6694H7.17273" stroke="#2B2B2B" stroke-width="1.5" stroke-miterlimit="10"/>
<path id="Vector_11" d="M0 54.0491H7.17273" stroke="#2B2B2B" stroke-width="1.5" stroke-miterlimit="10"/>
<path id="Vector_12" d="M23.6085 35.5194C28.3951 35.5194 32.2755 31.639 32.2755 26.8524C32.2755 22.0657 28.3951 18.1853 23.6085 18.1853C18.8218 18.1853 14.9414 22.0657 14.9414 26.8524C14.9414 31.639 18.8218 35.5194 23.6085 35.5194Z" fill="#F5F5F5" stroke="#2B2B2B" stroke-width="1.5" stroke-miterlimit="10"/>
<path id="Vector_13" d="M29.2891 33.1287L39.4504 43.29" stroke="#2B2B2B" stroke-width="1.5" stroke-miterlimit="10"/>
</g>
</svg>
