<svg width="38" height="70" viewBox="0 0 38 70" fill="none" xmlns="http://www.w3.org/2000/svg">
<g id="Group 228">
<path id="Vector" d="M20.2555 7.58789H5.46074C2.99714 7.58789 1 9.58503 1 12.0486V26.8434C1 29.307 2.99714 31.3042 5.46074 31.3042H20.2555C22.7191 31.3042 24.7163 29.307 24.7163 26.8434V12.0486C24.7163 9.58503 22.7191 7.58789 20.2555 7.58789Z" fill="#F5F5F5" stroke="#2B2B2B" stroke-width="1.5" stroke-miterlimit="10"/>
<path id="Vector_2" d="M37.2338 1L15.3784 22.6279C14.2094 23.7848 12.3268 23.7847 11.1579 22.6278L6.92969 18.4431" stroke="#2B2B2B" stroke-width="1.5" stroke-miterlimit="10"/>
<path id="Vector_3" d="M20.2555 45.1387H5.46074C2.99714 45.1387 1 47.1358 1 49.5994V64.3942C1 66.8578 2.99714 68.8549 5.46074 68.8549H20.2555C22.7191 68.8549 24.7163 66.8578 24.7163 64.3942V49.5994C24.7163 47.1358 22.7191 45.1387 20.2555 45.1387Z" fill="#F5F5F5" stroke="#2B2B2B" stroke-width="1.5" stroke-miterlimit="10"/>
<path id="Vector_4" d="M37.2338 37.8921L15.4073 60.0914C14.2317 61.287 12.3044 61.287 11.1289 60.0914L6.92969 55.8205" stroke="#2B2B2B" stroke-width="1.5" stroke-miterlimit="10"/>
</g>
</svg>
